# Blender 5.2.0 LTS
# www.blender.org
mtllib void daggers black.mtl
o Voidpistol
v 0.003047 -0.547799 -0.001440
v 0.001390 -0.314243 0.051497
v 0.026959 -0.314249 0.043911
v 0.019053 -0.302703 0.031008
v 0.045305 -0.314317 0.024561
v 0.033012 -0.329301 0.053786
v 0.055470 -0.329400 0.030068
v 0.051507 -0.314362 -0.001385
v 0.036450 -0.302747 -0.000952
v 0.043929 -0.314410 -0.026908
v 0.032037 -0.302695 0.017337
v 0.031074 -0.302834 -0.019040
v 0.016616 -0.295504 0.009010
v 0.018878 -0.295458 -0.000526
v 0.016079 -0.295524 -0.009935
v 0.017359 -0.302770 -0.032067
v 0.000012 -0.293017 0.000005
v 0.009859 -0.295478 0.016020
v 0.000982 -0.302750 0.036413
v 0.000490 -0.295485 0.018802
v -0.008985 -0.295498 0.016611
v -0.017363 -0.302750 0.032026
v -0.024548 -0.314316 0.045292
v -0.016093 -0.295458 0.009857
v -0.031045 -0.302721 0.019087
v -0.043915 -0.314355 0.026933
v -0.053754 -0.329415 0.033048
v -0.030041 -0.329326 0.055524
v -0.051494 -0.314402 0.001410
v -0.036419 -0.302808 0.000999
v -0.018891 -0.295524 0.000448
v -0.016596 -0.295512 -0.009001
v -0.032042 -0.302825 -0.017379
v -0.045293 -0.314448 -0.024537
v -0.019057 -0.302818 -0.031049
v -0.009873 -0.295503 -0.016098
v -0.000503 -0.295497 -0.018882
v 0.009006 -0.295518 -0.016600
v -0.001000 -0.302865 -0.036485
v -0.001364 -0.314428 -0.051442
v 0.024562 -0.314449 -0.045267
v 0.053765 -0.329467 -0.033003
v -0.026933 -0.314422 -0.043854
v 0.030051 -0.329555 -0.055480
v -0.033002 -0.329581 -0.053741
v -0.055459 -0.329482 -0.030023
v -0.072782 -0.365867 0.002093
v -0.062045 -0.365786 0.038235
v -0.059949 -0.346948 0.036876
v -0.033516 -0.346915 0.061905
v -0.059943 -0.384603 0.036923
v -0.034679 -0.365752 0.064151
v -0.033477 -0.384604 0.062040
v -0.030019 -0.402209 0.055646
v -0.053720 -0.402204 0.033201
v -0.070323 -0.384715 0.001993
v -0.061837 -0.384749 -0.033399
v -0.063037 -0.402286 0.001853
v -0.043844 -0.417295 0.027192
v -0.055437 -0.402365 -0.029901
v -0.032968 -0.402371 -0.053588
v -0.045258 -0.417354 -0.024363
v -0.051458 -0.417309 0.001582
v -0.036787 -0.384809 -0.059837
v -0.038104 -0.365980 -0.062019
v -0.010938 -0.458435 -0.017651
v -0.028051 -0.435939 -0.015021
v -0.016648 -0.435989 -0.026950
v -0.002453 -0.516416 0.004938
v -0.005453 -0.479558 0.010490
v -0.009789 -0.479513 0.006405
v -0.009957 -0.458389 0.018683
v -0.004437 -0.516353 0.003061
v -0.002870 -0.547794 0.002151
v -0.001587 -0.547835 0.003338
v -0.005216 -0.516318 0.000438
v -0.011527 -0.479548 0.000580
v -0.003385 -0.547780 0.000422
v -0.002972 -0.547774 -0.001335
v -0.004589 -0.516332 -0.002244
v -0.001740 -0.547818 -0.002637
v -0.002687 -0.516411 -0.004177
v -0.010125 -0.479582 -0.005229
v -0.005999 -0.479519 -0.009569
v -0.018380 -0.458424 -0.009694
v -0.020909 -0.458460 0.000865
v -0.031892 -0.435967 0.001073
v -0.017818 -0.458453 0.011273
v -0.027187 -0.435884 0.016916
v -0.015163 -0.435924 0.028340
v -0.063059 -0.329403 0.001732
v -0.036792 -0.347153 -0.059883
v -0.070328 -0.347060 0.001946
v -0.061842 -0.347094 -0.033445
v -0.064005 -0.365937 -0.034568
v -0.001950 -0.365921 -0.072733
v -0.001869 -0.384809 -0.070199
v -0.001655 -0.402361 -0.062867
v -0.026914 -0.417422 -0.043712
v 0.033561 -0.384757 -0.061707
v -0.001347 -0.417429 -0.051298
v 0.034723 -0.365919 -0.063953
v 0.033556 -0.347101 -0.061753
v 0.030085 -0.402344 -0.055327
v 0.024576 -0.417449 -0.045124
v 0.059993 -0.384724 -0.036678
v 0.053798 -0.402256 -0.032850
v -0.000816 -0.435968 -0.031709
v 0.015245 -0.435993 -0.027914
v 0.010044 -0.458500 -0.018206
v 0.027282 -0.435940 -0.016459
v 0.017937 -0.458470 -0.010711
v -0.000062 -0.516383 -0.004946
v 0.001717 -0.547818 -0.002747
v 0.000003 -0.547793 -0.003086
v 0.002594 -0.516352 -0.004320
v 0.009941 -0.479545 -0.005725
v 0.004578 -0.516417 -0.002441
v -0.000261 -0.479598 -0.011294
v 0.005557 -0.479561 -0.009928
v -0.000526 -0.458462 -0.020745
v -0.001688 -0.329572 -0.063021
v 0.059987 -0.347068 -0.036725
v -0.001874 -0.347154 -0.070246
v 0.055503 -0.402189 0.030221
v 0.033034 -0.402184 0.053909
v 0.026976 -0.417249 0.044053
v 0.000912 -0.435856 0.032167
v 0.001444 -0.417277 0.051726
v -0.024513 -0.417222 0.045464
v 0.045320 -0.417317 0.024704
v 0.043942 -0.417410 -0.026764
v 0.031975 -0.435951 -0.000647
v 0.051521 -0.417362 -0.001241
v 0.028146 -0.435884 0.015480
v 0.016778 -0.435869 0.027496
v 0.062088 -0.365885 -0.038038
v 0.072826 -0.365804 -0.001895
v 0.070360 -0.384705 -0.001779
v 0.061886 -0.384577 0.033643
v 0.063104 -0.402268 -0.001533
v 0.021030 -0.458463 -0.000302
v 0.018513 -0.458406 0.010288
v 0.011037 -0.458360 0.018158
v 0.010230 -0.479536 0.005790
v 0.011632 -0.479570 -0.000019
v 0.004691 -0.516400 0.002765
v 0.002828 -0.516359 0.004795
v 0.001869 -0.547834 0.003228
v 0.003115 -0.547785 0.001958
v 0.005371 -0.516346 0.000215
v 0.003528 -0.547779 0.000202
v 0.000073 -0.619570 0.000038
v 0.000174 -0.547800 0.003796
v 0.038136 -0.365784 0.062186
v 0.064049 -0.365735 0.034766
v 0.061882 -0.346922 0.033597
v 0.070367 -0.346956 -0.001794
v 0.063082 -0.329386 -0.001655
v 0.001995 -0.365749 0.072930
v 0.001918 -0.384517 0.070444
v 0.036823 -0.384611 0.060051
v 0.001732 -0.402099 0.063219
v 0.006116 -0.479505 0.010162
v 0.000612 -0.458426 0.021221
v 0.000365 -0.479520 0.011855
v 0.000203 -0.516387 0.005564
v 0.001699 -0.329310 0.063066
v 0.001914 -0.346862 0.070397
v 0.036831 -0.346862 0.060035
vn 0.1760 0.7851 0.5939
vn 0.1765 0.7848 0.5941
vn 0.1757 0.7852 0.5938
vn 0.5836 0.5963 0.5512
vn 0.5845 0.5955 0.5512
vn 0.4515 0.7825 0.4288
vn 0.4515 0.7844 0.4253
vn 0.4515 0.7833 0.4273
vn 0.5847 0.5953 0.5511
vn 0.6068 0.7818 0.1439
vn 0.6070 0.7816 0.1437
vn 0.6068 0.7817 0.1439
vn 0.5963 0.7824 -0.1797
vn 0.5951 0.7831 -0.1804
vn 0.5977 0.7815 -0.1789
vn 0.6065 0.7819 0.1441
vn 0.4515 0.7823 0.4292
vn 0.5949 0.7833 -0.1806
vn 0.2834 0.9203 0.2698
vn 0.2835 0.9203 0.2698
vn 0.3809 0.9203 0.0893
vn 0.3830 0.9189 0.0944
vn 0.3822 0.9195 0.0923
vn 0.3834 0.9187 0.0953
vn 0.3778 0.9183 -0.1184
vn 0.3772 0.9188 -0.1165
vn 0.3776 0.9185 -0.1177
vn 0.3780 0.9182 -0.1188
vn 0.4302 0.7827 -0.4497
vn 0.4302 0.7831 -0.4491
vn 0.4301 0.7814 -0.4522
vn 0.2723 0.9190 -0.2852
vn 0.2748 0.9184 -0.2848
vn 0.2706 0.9194 -0.2854
vn 0.1292 0.9910 0.0354
vn 0.1270 0.9909 -0.0447
vn 0.0987 0.9909 0.0916
vn 0.1104 0.9200 0.3761
vn 0.1101 0.9201 0.3760
vn 0.1106 0.9199 0.3762
vn 0.1755 0.7854 0.5936
vn 0.1111 0.9198 0.3764
vn 0.0377 0.9909 0.1291
vn -0.0897 0.9198 0.3820
vn -0.0906 0.9196 0.3824
vn -0.0900 0.9197 0.3821
vn -0.0317 0.9909 0.1309
vn -0.1443 0.7851 0.6024
vn -0.1453 0.7844 0.6030
vn -0.1440 0.7853 0.6022
vn -0.0915 0.9193 0.3827
vn -0.1466 0.7836 0.6037
vn -0.2681 0.9196 0.2871
vn -0.2677 0.9197 0.2872
vn -0.2685 0.9195 0.2871
vn -0.0892 0.9910 0.0998
vn -0.4282 0.7823 0.4523
vn -0.4261 0.7835 0.4523
vn -0.4265 0.7832 0.4523
vn -0.2694 0.9193 0.2869
vn -0.4304 0.7811 0.4523
vn -0.5525 0.5973 0.5814
vn -0.5525 0.5971 0.5815
vn -0.5525 0.5975 0.5812
vn -0.5525 0.5980 0.5806
vn -0.5981 0.7821 0.1750
vn -0.5987 0.7813 0.1764
vn -0.5975 0.7827 0.1740
vn -0.3789 0.9193 0.1066
vn -0.3795 0.9188 0.1083
vn -0.3791 0.9191 0.1073
vn -0.5974 0.7829 0.1737
vn -0.3788 0.9194 0.1062
vn -0.1307 0.9909 0.0320
vn -0.3847 0.9184 -0.0924
vn -0.3846 0.9185 -0.0923
vn -0.1321 0.9908 -0.0308
vn -0.6061 0.7820 -0.1457
vn -0.6057 0.7824 -0.1450
vn -0.6058 0.7823 -0.1451
vn -0.3847 0.9184 -0.0925
vn -0.6065 0.7815 -0.1463
vn -0.2880 0.9182 -0.2721
vn -0.2872 0.9184 -0.2723
vn -0.2877 0.9182 -0.2722
vn -0.4529 0.7812 -0.4296
vn -0.4529 0.7811 -0.4298
vn -0.0987 0.9908 -0.0924
vn -0.2883 0.9181 -0.2721
vn -0.0391 0.9909 -0.1290
vn 0.0336 0.9908 -0.1310
vn 0.0936 0.9907 -0.0985
vn -0.1130 0.9178 -0.3806
vn -0.1138 0.9176 -0.3809
vn -0.1135 0.9177 -0.3807
vn 0.0937 0.9176 -0.3862
vn 0.0948 0.9173 -0.3866
vn 0.0912 0.9183 -0.3852
vn -0.1121 0.9181 -0.3803
vn 0.2698 0.9196 -0.2855
vn 0.0876 0.9193 -0.3837
vn 0.1440 0.7803 -0.6087
vn 0.1422 0.7814 -0.6076
vn 0.1426 0.7812 -0.6078
vn -0.1778 0.7809 -0.5988
vn -0.1783 0.7806 -0.5991
vn -0.1779 0.7808 -0.5989
vn 0.1458 0.7791 -0.6097
vn 0.4300 0.7797 -0.4552
vn 0.5516 0.5962 -0.5834
vn 0.5516 0.5964 -0.5831
vn 0.5516 0.5957 -0.5839
vn -0.1775 0.7811 -0.5987
vn -0.4529 0.7813 -0.4294
vn 0.5515 0.5954 -0.5842
vn -0.5829 0.5948 -0.5535
vn -0.5832 0.5945 -0.5535
vn -0.5824 0.5953 -0.5536
vn -0.5821 0.5956 -0.5536
vn -0.9510 0.1263 0.2822
vn -0.9510 0.1262 0.2823
vn -0.9510 0.1262 0.2822
vn -0.6820 0.1279 0.7200
vn -0.6820 0.1278 0.7201
vn -0.6820 0.1279 0.7201
vn -0.9509 -0.1258 0.2828
vn -0.9509 -0.1259 0.2828
vn -0.9509 -0.1257 0.2829
vn -0.6821 -0.1261 0.7203
vn -0.6820 -0.1264 0.7203
vn -0.6829 -0.1245 0.7198
vn -0.6830 -0.1242 0.7197
vn -0.6392 -0.3690 0.6747
vn -0.6394 -0.3703 0.6738
vn -0.6394 -0.3700 0.6740
vn -0.6392 -0.3687 0.6749
vn -0.8899 -0.3709 0.2656
vn -0.8899 -0.3708 0.2656
vn -0.8899 -0.3710 0.2655
vn -0.9509 -0.1256 0.2829
vn -0.9649 -0.1249 -0.2311
vn -0.9649 -0.1247 -0.2312
vn -0.9649 -0.1250 -0.2311
vn -0.8899 -0.3711 0.2655
vn -0.7696 -0.5955 0.2302
vn -0.7691 -0.5966 0.2292
vn -0.7697 -0.5954 0.2303
vn -0.9030 -0.3714 -0.2160
vn -0.9031 -0.3710 -0.2162
vn -0.9028 -0.3722 -0.2154
vn -0.9027 -0.3726 -0.2151
vn -0.6736 -0.3718 -0.6387
vn -0.6736 -0.3716 -0.6389
vn -0.6738 -0.3731 -0.6378
vn -0.7799 -0.5979 -0.1853
vn -0.7798 -0.5980 -0.1852
vn -0.7799 -0.5979 -0.1852
vn -0.7690 -0.5969 0.2289
vn -0.7799 -0.5978 -0.1853
vn -0.6738 -0.3734 -0.6376
vn -0.7203 -0.1287 -0.6816
vn -0.7214 -0.1261 -0.6809
vn -0.7200 -0.1294 -0.6819
vn -0.6557 -0.4259 -0.6235
vn -0.6589 -0.4290 -0.6179
vn -0.6551 -0.4253 -0.6244
vn -0.6780 -0.1630 0.7168
vn -0.6773 -0.1632 0.7173
vn -0.6803 -0.1638 0.7144
vn -0.6317 -0.3933 0.6681
vn -0.6293 -0.3942 0.6697
vn -0.6326 -0.3929 0.6674
vn -0.6814 -0.0551 0.7298
vn -0.6790 -0.0523 0.7323
vn -0.6839 -0.0535 0.7276
vn -0.6873 -0.0558 0.7242
vn -0.9574 -0.0544 0.2837
vn -0.9573 -0.0559 0.2837
vn -0.9453 -0.1629 0.2825
vn -0.9452 -0.1630 0.2830
vn -0.9461 -0.1636 0.2794
vn -0.9463 -0.1635 0.2790
vn -0.9573 -0.0518 0.2844
vn -0.9723 -0.0553 -0.2270
vn -0.9722 -0.0511 -0.2283
vn -0.9720 -0.0564 -0.2281
vn -0.9722 -0.0565 -0.2270
vn -0.9597 -0.1632 -0.2286
vn -0.9607 -0.1640 -0.2238
vn -0.9603 -0.1639 -0.2258
vn -0.7261 -0.0560 -0.6853
vn -0.7264 -0.0450 -0.6858
vn -0.7261 -0.0571 -0.6852
vn -0.7128 -0.0558 -0.6991
vn -0.7106 -0.1633 -0.6844
vn -0.7100 -0.1627 -0.6852
vn -0.7138 -0.1636 -0.6810
vn -0.7066 -0.1624 -0.6887
vn -0.6641 -0.3975 -0.6332
vn -0.6618 -0.3985 -0.6350
vn -0.6697 -0.3951 -0.6288
vn -0.9593 -0.1632 -0.2306
vn -0.6714 -0.3944 -0.6274
vn -0.6597 -0.4298 -0.6165
vn -0.8935 -0.3942 -0.2150
vn -0.8937 -0.3947 -0.2134
vn -0.8936 -0.3946 -0.2139
vn -0.8935 -0.3941 -0.2153
vn -0.8798 -0.3952 0.2641
vn -0.8797 -0.3950 0.2648
vn -0.8801 -0.3958 0.2623
vn -0.8790 -0.4278 -0.2107
vn -0.8790 -0.4273 -0.2117
vn -0.8790 -0.4279 -0.2106
vn -0.8790 -0.4272 -0.2119
vn -0.8802 -0.3960 0.2617
vn -0.8672 -0.4258 0.2581
vn -0.8673 -0.4259 0.2579
vn -0.8672 -0.4251 0.2594
vn -0.6286 -0.3945 0.6703
vn -0.8671 -0.4249 0.2598
vn -0.6234 -0.4258 0.6558
vn -0.6238 -0.4262 0.6551
vn -0.6206 -0.4233 0.6601
vn -0.6389 0.3711 0.6739
vn -0.6388 0.3708 0.6741
vn -0.6391 0.3724 0.6730
vn -0.6391 0.3727 0.6728
vn -0.7697 0.5960 0.2288
vn -0.7697 0.5959 0.2289
vn -0.7690 0.5975 0.2274
vn -0.7689 0.5977 0.2272
vn -0.7800 0.5969 -0.1878
vn -0.7799 0.5972 -0.1874
vn -0.7800 0.5970 -0.1877
vn -0.7803 0.5964 -0.1883
vn -0.6743 0.3688 -0.6398
vn -0.6741 0.3690 -0.6398
vn -0.6742 0.3689 -0.6398
vn -0.9035 0.3694 -0.2171
vn -0.9036 0.3693 -0.2172
vn -0.9035 0.3695 -0.2171
vn -0.8905 0.3701 0.2646
vn -0.8906 0.3698 0.2648
vn -0.8902 0.3717 0.2635
vn -0.8901 0.3720 0.2633
vn -0.9035 0.3696 -0.2170
vn -0.6743 0.3687 -0.6398
vn -0.9649 0.1243 -0.2314
vn -0.9649 0.1241 -0.2315
vn -0.9649 0.1244 -0.2313
vn -0.7211 0.1268 -0.6811
vn -0.7202 0.1234 -0.6827
vn -0.7204 0.1241 -0.6824
vn -0.9649 0.1246 -0.2312
vn -0.7213 0.1275 -0.6808
vn -0.7217 -0.1255 -0.6807
vn -0.9649 -0.1256 -0.2308
vn -0.2816 -0.1298 -0.9507
vn -0.2820 -0.1290 -0.9507
vn -0.2815 -0.1299 -0.9507
vn -0.2635 -0.3743 -0.8891
vn -0.2635 -0.3744 -0.8891
vn -0.2639 -0.3738 -0.8892
vn -0.2821 -0.1288 -0.9507
vn -0.2633 -0.3746 -0.8890
vn -0.2283 -0.5961 -0.7698
vn -0.2284 -0.5960 -0.7698
vn -0.2278 -0.5966 -0.7695
vn 0.2312 -0.1287 -0.9644
vn 0.2313 -0.1284 -0.9644
vn 0.2309 -0.1291 -0.9644
vn -0.2286 -0.5958 -0.7699
vn 0.2309 -0.1292 -0.9644
vn 0.2310 0.1270 -0.9646
vn 0.2309 0.1271 -0.9646
vn 0.2166 -0.3711 -0.9030
vn 0.2170 -0.3705 -0.9031
vn 0.2149 -0.3736 -0.9023
vn 0.2145 -0.3743 -0.9022
vn 0.1858 -0.5959 -0.7813
vn 0.1860 -0.5957 -0.7814
vn 0.1858 -0.5958 -0.7814
vn 0.1856 -0.5960 -0.7812
vn 0.6391 -0.3724 -0.6730
vn 0.6389 -0.3712 -0.6739
vn 0.6391 -0.3727 -0.6728
vn 0.2094 -0.4264 -0.8800
vn 0.2072 -0.4275 -0.8800
vn 0.2076 -0.4273 -0.8800
vn 0.6241 -0.4262 -0.6549
vn 0.6238 -0.4259 -0.6553
vn 0.6244 -0.4264 -0.6544
vn -0.2599 -0.4253 -0.8669
vn -0.2600 -0.4253 -0.8669
vn -0.2590 -0.4258 -0.8670
vn 0.1927 -0.0576 -0.9796
vn 0.1927 -0.0568 -0.9796
vn 0.1930 -0.0432 -0.9802
vn -0.2481 -0.0578 -0.9670
vn 0.2299 -0.0550 -0.9717
vn 0.6771 -0.1622 -0.7178
vn 0.6757 -0.1623 -0.7191
vn 0.6817 -0.1636 -0.7131
vn -0.2804 -0.0554 -0.9583
vn 0.2279 -0.1643 -0.9597
vn 0.2267 -0.1646 -0.9600
vn 0.2283 -0.1644 -0.9596
vn -0.2779 -0.1649 -0.9463
vn -0.2759 -0.1649 -0.9469
vn -0.2840 -0.1635 -0.9448
vn 0.6831 -0.1635 -0.7117
vn 0.2264 -0.1646 -0.9600
vn 0.6355 -0.3962 -0.6627
vn 0.6334 -0.3970 -0.6642
vn 0.6364 -0.3958 -0.6621
vn 0.2126 -0.3965 -0.8931
vn 0.2131 -0.3964 -0.8930
vn 0.2129 -0.3965 -0.8930
vn 0.2121 -0.3967 -0.8931
vn 0.2099 -0.4262 -0.8800
vn -0.2587 -0.4259 -0.8670
vn -0.2676 -0.3965 -0.8782
vn -0.2693 -0.3960 -0.8779
vn -0.2635 -0.3979 -0.8788
vn -0.2860 -0.1637 -0.9441
vn -0.2622 -0.3984 -0.8789
vn 0.1868 0.5942 -0.7823
vn 0.1866 0.5944 -0.7822
vn 0.1855 0.5955 -0.7816
vn -0.2286 0.5944 -0.7710
vn -0.2287 0.5944 -0.7710
vn 0.1854 0.5957 -0.7815
vn 0.6388 0.3689 -0.6752
vn 0.6388 0.3686 -0.6754
vn 0.6388 0.3687 -0.6753
vn 0.2146 0.3693 -0.9042
vn 0.2149 0.3688 -0.9043
vn 0.2161 0.3671 -0.9047
vn -0.2644 0.3687 -0.8912
vn -0.2642 0.3690 -0.8911
vn -0.2643 0.3688 -0.8911
vn 0.2163 0.3667 -0.9048
vn -0.2645 0.3685 -0.8912
vn 0.2310 0.1269 -0.9646
vn -0.2821 0.1274 -0.9509
vn -0.2822 0.1272 -0.9509
vn -0.2821 0.1273 -0.9509
vn -0.2820 0.1275 -0.9509
vn 0.5826 -0.5958 0.5529
vn 0.5826 -0.5959 0.5528
vn 0.5826 -0.5946 0.5541
vn -0.1632 -0.7109 0.6841
vn -0.1659 -0.7127 0.6815
vn -0.1612 -0.7095 0.6861
vn 0.1989 -0.7101 0.6754
vn 0.2026 -0.7127 0.6715
vn 0.2005 -0.7112 0.6738
vn -0.5501 -0.5970 0.5839
vn -0.5496 -0.5976 0.5839
vn -0.5527 -0.5947 0.5838
vn 0.5826 -0.5944 0.5544
vn -0.5530 -0.5944 0.5838
vn -0.5833 -0.5967 -0.5512
vn -0.5813 -0.5984 -0.5513
vn -0.5816 -0.5982 -0.5513
vn -0.6734 -0.7116 0.2006
vn -0.6721 -0.7125 0.2018
vn -0.6711 -0.7131 0.2027
vn -0.6823 -0.7127 -0.1630
vn -0.6832 -0.7120 -0.1620
vn -0.6816 -0.7132 -0.1637
vn -0.5836 -0.5964 -0.5512
vn 0.5539 -0.5946 -0.5827
vn 0.5540 -0.5952 -0.5821
vn 0.5539 -0.5947 -0.5826
vn 0.5539 -0.5944 -0.5830
vn 0.6821 -0.7124 0.1646
vn 0.6824 -0.7123 0.1643
vn 0.6822 -0.7124 0.1645
vn 0.6710 -0.7141 -0.1995
vn 0.6723 -0.7132 -0.1983
vn 0.6716 -0.7137 -0.1990
vn 0.4843 -0.7137 -0.5061
vn 0.4818 -0.7150 -0.5067
vn 0.4832 -0.7142 -0.5063
vn 0.6709 -0.7142 -0.1996
vn 0.4847 -0.7135 -0.5060
vn 0.1603 -0.7137 -0.6818
vn 0.1600 -0.7135 -0.6821
vn 0.1608 -0.7141 -0.6814
vn 0.1616 -0.7146 -0.6806
vn -0.1992 -0.7145 -0.6707
vn -0.1998 -0.7148 -0.6701
vn -0.2002 -0.7151 -0.6697
vn -0.2003 -0.7152 -0.6696
vn -0.5083 -0.7134 -0.4824
vn -0.5089 -0.7146 -0.4799
vn -0.5085 -0.7139 -0.4814
vn -0.5082 -0.7132 -0.4828
vn -0.6814 -0.7133 -0.1639
vn 0.6819 -0.7126 0.1648
vn 0.5098 -0.7109 0.4845
vn 0.5087 -0.7114 0.4848
vn 0.5105 -0.7105 0.4843
vn 0.5109 -0.7103 0.4842
vn 0.1984 -0.7097 0.6760
vn -0.6708 -0.7133 0.2030
vn -0.4836 -0.7132 0.5074
vn -0.4838 -0.7136 0.5067
vn -0.4829 -0.7121 0.5097
vn -0.4820 -0.7105 0.5128
vn -0.1605 -0.7090 0.6867
vn 0.6820 0.1265 -0.7204
vn 0.6820 0.1265 -0.7203
vn 0.6820 -0.1279 -0.7201
vn 0.6820 -0.1278 -0.7201
vn 0.9510 -0.1259 -0.2824
vn 0.9510 -0.1261 -0.2823
vn 0.6388 -0.3708 -0.6741
vn 0.9510 -0.1258 -0.2824
vn 0.8899 -0.3719 -0.2642
vn 0.8899 -0.3719 -0.2643
vn 0.8898 -0.3721 -0.2641
vn 0.9649 -0.1245 0.2312
vn 0.9649 -0.1245 0.2313
vn 0.9033 -0.3700 0.2172
vn 0.9034 -0.3697 0.2174
vn 0.9033 -0.3698 0.2173
vn 0.9033 -0.3701 0.2171
vn 0.8900 -0.3714 -0.2646
vn 0.7812 -0.5953 0.1880
vn 0.7815 -0.5948 0.1885
vn 0.7811 -0.5955 0.1879
vn 0.7712 -0.5940 -0.2292
vn 0.7705 -0.5953 -0.2279
vn 0.7712 -0.5938 -0.2294
vn 0.7810 -0.5957 0.1877
vn 0.7704 -0.5956 -0.2277
vn 0.6245 -0.4265 -0.6542
vn 0.8675 -0.4256 -0.2576
vn 0.8674 -0.4255 -0.2578
vn 0.8675 -0.4256 -0.2577
vn 0.6327 -0.3973 -0.6647
vn 0.8675 -0.4257 -0.2575
vn 0.8803 -0.3957 -0.2617
vn 0.8803 -0.3959 -0.2613
vn 0.8802 -0.3955 -0.2624
vn 0.8803 -0.4250 0.2110
vn 0.8803 -0.4247 0.2116
vn 0.8803 -0.4249 0.2113
vn 0.8803 -0.4251 0.2108
vn 0.6556 -0.4247 0.6243
vn 0.6570 -0.4260 0.6220
vn 0.6567 -0.4257 0.6225
vn 0.8927 -0.3948 0.2171
vn 0.8930 -0.3957 0.2144
vn 0.8929 -0.3955 0.2151
vn 0.6653 -0.3953 0.6333
vn 0.6648 -0.3955 0.6338
vn 0.6671 -0.3945 0.6319
vn 0.8927 -0.3946 0.2178
vn 0.8801 -0.3954 -0.2627
vn 0.9588 -0.1631 0.2324
vn 0.7349 -0.0560 0.6758
vn 0.7141 -0.0538 0.6980
vn 0.7141 -0.0513 0.6981
vn 0.7141 -0.0514 0.6981
vn 0.9651 -0.0551 0.2560
vn 0.9545 -0.1609 0.2509
vn 0.9467 -0.1631 -0.2777
vn 0.9466 -0.1629 -0.2781
vn 0.9457 -0.1624 -0.2814
vn 0.9458 -0.1626 -0.2811
vn 0.9719 -0.0571 0.2284
vn 0.9722 -0.0521 0.2285
vn 0.9721 -0.0522 0.2285
vn 0.9576 -0.0540 -0.2831
vn 0.9572 -0.0558 -0.2841
vn 0.9580 -0.0560 -0.2811
vn 0.9587 -0.0509 -0.2798
vn -0.9575 -0.0476 0.2844
vn 0.7003 -0.0504 -0.7121
vn 0.7004 -0.0437 -0.7124
vn 0.7001 -0.0558 -0.7119
vn -0.7264 -0.0439 -0.6859
vn -0.2506 -0.0522 0.9667
vn -0.2507 -0.0503 0.9668
vn -0.2506 -0.0523 0.9667
vn 0.7001 -0.0568 -0.7118
vn 0.6856 -0.0554 -0.7259
vn 0.7208 0.1258 0.6817
vn 0.7209 0.1254 0.6816
vn 0.7202 0.1270 0.6820
vn 0.9022 0.3732 0.2162
vn 0.9024 0.3725 0.2166
vn 0.9021 0.3736 0.2159
vn 0.9649 0.1255 0.2308
vn 0.9649 0.1249 0.2311
vn 0.9649 0.1247 0.2312
vn 0.7213 -0.1234 0.6815
vn 0.7211 -0.1241 0.6817
vn 0.7198 -0.1269 0.6825
vn 0.9649 -0.1246 0.2312
vn 0.9024 0.3724 0.2167
vn 0.7813 0.5954 0.1875
vn 0.7802 0.5972 0.1858
vn 0.7814 0.5951 0.1878
vn 0.7800 0.5977 0.1854
vn 0.7691 0.5965 -0.2295
vn 0.7690 0.5966 -0.2295
vn 0.7692 0.5963 -0.2298
vn 0.8899 0.3708 -0.2656
vn 0.8899 0.3710 -0.2655
vn 0.8899 0.3709 -0.2655
vn 0.7694 0.5958 -0.2302
vn 0.9509 0.1258 -0.2828
vn 0.9509 0.1256 -0.2829
vn 0.9509 0.1257 -0.2829
vn 0.6388 0.3690 -0.6751
vn 0.6820 0.1264 -0.7204
vn 0.9509 0.1259 -0.2828
vn -0.2312 0.1286 0.9644
vn -0.2312 0.1287 0.9644
vn -0.2309 0.1292 0.9644
vn -0.2307 -0.1235 0.9652
vn -0.2310 -0.1228 0.9652
vn -0.2292 -0.1262 0.9652
vn -0.2289 -0.1269 0.9652
vn 0.2826 -0.1274 0.9507
vn 0.2827 -0.1272 0.9507
vn 0.2828 -0.1271 0.9507
vn -0.2139 -0.3701 0.9040
vn -0.2137 -0.3703 0.9040
vn -0.2142 -0.3696 0.9042
vn 0.2642 -0.3688 0.8912
vn 0.2643 -0.3686 0.8912
vn 0.2644 -0.3685 0.8912
vn 0.6744 -0.3688 0.6397
vn 0.6743 -0.3689 0.6397
vn 0.6743 -0.3690 0.6397
vn 0.2641 -0.3690 0.8911
vn -0.2144 -0.3693 0.9042
vn 0.2281 -0.5950 0.7707
vn 0.2322 -0.5907 0.7728
vn 0.2276 -0.5955 0.7704
vn -0.1847 -0.5965 0.7811
vn -0.1842 -0.5971 0.7808
vn -0.1896 -0.5913 0.7838
vn -0.1905 -0.5903 0.7844
vn 0.2330 -0.5899 0.7732
vn 0.6553 -0.4243 0.6249
vn 0.2556 -0.4254 0.8682
vn 0.2552 -0.4256 0.8682
vn 0.2572 -0.4246 0.8681
vn 0.6679 -0.3942 0.6313
vn 0.2577 -0.4244 0.8680
vn 0.2607 -0.3943 0.8812
vn 0.2614 -0.3941 0.8811
vn 0.2608 -0.3943 0.8812
vn -0.2084 -0.4263 0.8803
vn -0.2129 -0.4241 0.8802
vn -0.2120 -0.4245 0.8803
vn 0.7204 -0.1627 0.6743
vn 0.7227 -0.1636 0.6715
vn 0.7180 -0.1626 0.6768
vn 0.7250 -0.1638 0.6689
vn 0.2605 -0.3944 0.8813
vn 0.2791 -0.1627 0.9464
vn -0.2146 -0.3926 0.8943
vn -0.2075 -0.3950 0.8950
vn -0.2095 -0.3943 0.8948
vn -0.2162 -0.3921 0.8942
vn 0.2813 -0.0563 0.9580
vn -0.2244 -0.1630 0.9608
vn -0.2245 -0.1630 0.9608
vn -0.2283 -0.0558 0.9720
vn 0.3163 -0.0536 0.9471
vn 0.3164 -0.0519 0.9472
vn 0.3164 -0.0518 0.9472
vn -0.2505 -0.0542 0.9666
vn 0.7142 -0.0489 0.6983
vn -0.2485 -0.0424 -0.9677
vn -0.6791 -0.0494 0.7324
vn 0.9724 -0.0473 0.2286
vn 0.3165 -0.0501 0.9473
vn 0.1930 -0.0425 -0.9803
vn -0.9725 -0.0456 -0.2284
vn 0.9589 -0.0455 -0.2799
vn -0.6809 -0.1637 0.7138
vn -0.6198 -0.4226 0.6612
vn -0.2078 -0.4265 0.8803
vn -0.1885 0.5957 0.7808
vn -0.1880 0.5961 0.7806
vn -0.1857 0.5986 0.7792
vn 0.2285 0.5959 0.7699
vn 0.2286 0.5958 0.7699
vn 0.2283 0.5961 0.7698
vn 0.2279 0.5966 0.7695
vn 0.2637 0.3740 0.8891
vn 0.2633 0.3746 0.8890
vn 0.2638 0.3738 0.8892
vn -0.1854 0.5989 0.7790
vn -0.2145 0.3742 0.9022
vn -0.2150 0.3736 0.9023
vn -0.2167 0.3710 0.9030
vn 0.2639 0.3738 0.8892
vn -0.2170 0.3705 0.9031
vn 0.6743 0.3735 0.6370
vn 0.6744 0.3733 0.6370
vn 0.6737 0.3744 0.6372
vn 0.2822 0.1285 0.9507
vn 0.2821 0.1287 0.9507
vn 0.2826 0.1279 0.9507
vn -0.2313 0.1283 0.9644
vn 0.6734 0.3748 0.6372
vn 0.2827 0.1276 0.9507
vn 0.7202 0.1272 0.6821
vn 0.7195 -0.1276 0.6827
vn 0.2825 -0.1275 0.9507
vn 0.6745 -0.3687 0.6397
vt 1.883790 -1.919280
vt 1.892440 -1.886980
vt 1.908810 -1.896440
vt 1.916090 -1.863340
vt 1.879880 -1.879730
vt 1.908830 -1.850780
vt 1.948390 -1.854680
vt 1.948390 -1.873590
vt 1.980690 -1.863340
vt 1.925540 -1.879710
vt 1.971230 -1.879710
vt 1.936550 -1.898780
vt 1.948390 -1.895610
vt 1.960220 -1.898780
vt 1.987960 -1.896440
vt 1.948390 -1.919280
vt 1.927880 -1.907450
vt 1.902690 -1.919280
vt 1.924710 -1.919280
vt 1.927880 -1.931120
vt 1.908810 -1.942130
vt 1.892440 -1.951580
vt 1.936550 -1.939790
vt 1.925540 -1.958860
vt 1.916090 -1.975230
vt 1.908830 -1.987790
vt 1.879880 -1.958840
vt 1.948390 -1.983880
vt 1.948390 -1.964980
vt 1.948390 -1.942960
vt 1.960220 -1.939790
vt 1.971230 -1.958860
vt 1.980690 -1.975230
vt 1.987960 -1.942130
vt 1.968890 -1.931120
vt 1.972060 -1.919280
vt 1.968890 -1.907450
vt 1.994080 -1.919280
vt 2.012990 -1.919280
vt 2.004330 -1.886980
vt 1.987940 -1.850780
vt 2.004330 -1.951580
vt 2.016890 -1.879730
vt 2.016890 -1.958840
vt 1.987940 -1.987790
vt 2.048570 -1.919280
vt 2.048570 -1.873620
vt 2.072200 -1.875170
vt 2.072200 -1.842880
vt 2.024940 -1.875170
vt 2.048570 -1.840190
vt 2.024940 -1.842880
vt 2.002920 -1.850780
vt 2.002920 -1.879730
vt 2.024940 -1.919280
vt 2.024940 -1.963400
vt 2.002920 -1.919280
vt 1.984000 -1.886990
vt 2.002920 -1.958840
vt 2.002920 -1.987790
vt 1.984000 -1.951580
vt 1.984000 -1.919280
vt 2.024940 -1.995690
vt 2.048570 -1.998380
vt 1.932490 -1.942070
vt 1.960680 -1.939310
vt 1.960680 -1.953970
vt 1.873210 -1.914170
vt 1.906000 -1.906710
vt 1.906000 -1.912020
vt 1.932490 -1.896500
vt 1.873210 -1.916330
vt 1.841100 -1.917110
vt 1.841100 -1.915520
vt 1.873210 -1.919280
vt 1.906000 -1.919280
vt 1.841100 -1.919280
vt 1.841100 -1.921460
vt 1.873210 -1.922240
vt 1.841100 -1.923050
vt 1.873210 -1.924400
vt 1.906000 -1.926540
vt 1.906000 -1.931860
vt 1.932490 -1.932440
vt 1.932490 -1.919280
vt 1.960680 -1.919280
vt 1.932490 -1.906130
vt 1.960680 -1.899260
vt 1.960680 -1.884600
vt 2.094220 -1.850780
vt 2.094220 -1.879730
vt 2.094220 -1.919280
vt 2.113130 -1.886980
vt 2.113130 -1.919280
vt 2.113130 -1.951580
vt 2.094220 -1.958840
vt 2.094220 -1.987790
vt 2.072200 -1.995690
vt 2.072200 -1.919280
vt 2.072200 -1.963400
vt 2.048570 -1.964950
vt 1.848200 -1.919280
vt 1.871830 -1.963400
vt 1.848200 -1.964950
vt 1.871830 -1.919280
vt 1.893850 -1.958840
vt 1.893850 -1.919280
vt 1.912770 -1.951580
vt 1.871830 -1.875170
vt 1.912770 -1.919280
vt 1.848200 -1.873620
vt 1.824570 -1.875170
vt 1.893850 -1.879730
vt 1.912770 -1.886990
vt 1.871830 -1.842880
vt 1.893850 -1.850780
vt 1.936100 -1.919280
vt 1.936100 -1.899260
vt 1.964280 -1.906130
vt 1.936100 -1.884600
vt 1.964280 -1.896500
vt 1.964280 -1.932440
vt 1.936100 -1.939310
vt 2.023560 -1.919280
vt 2.055670 -1.917110
vt 2.055670 -1.919280
vt 2.055670 -1.921460
vt 2.023560 -1.916330
vt 1.990770 -1.906710
vt 2.023560 -1.914170
vt 2.023560 -1.922240
vt 1.990770 -1.919280
vt 1.990770 -1.912020
vt 1.964280 -1.919280
vt 1.990770 -1.926540
vt 1.783640 -1.919280
vt 1.783640 -1.886980
vt 1.802550 -1.919280
vt 1.783640 -1.951580
vt 1.802550 -1.879730
vt 1.802550 -1.850780
vt 1.824570 -1.842880
vt 1.802550 -1.958840
vt 1.824570 -1.919280
vt 1.824570 -1.963400
vt 2.004330 -1.886990
vt 1.988440 -1.919280
vt 2.012980 -1.919280
vt 1.980680 -1.975220
vt 1.980680 -1.863340
vt 1.916090 -1.975220
vt 1.948390 -1.959340
vt 1.892450 -1.951580
vt 1.892450 -1.886990
vt 1.948390 -1.879230
vt 1.948390 -1.854690
vt 1.928360 -1.884600
vt 1.913700 -1.899260
vt 1.908330 -1.919280
vt 1.913700 -1.939310
vt 1.928360 -1.953970
vt 1.968410 -1.884600
vt 1.983070 -1.899260
vt 1.968410 -1.953970
vt 1.983070 -1.939310
vt 1.848200 -1.998380
vt 1.824570 -1.995690
vt 1.871830 -1.995690
vt 1.893850 -1.987790
vt 1.964280 -1.942070
vt 1.936100 -1.953970
vt 2.055670 -1.915520
vt 2.055670 -1.923050
vt 2.023560 -1.924400
vt 1.848200 -1.840190
vt 1.802550 -1.987790
s 1
usemtl Material.001
f 2/1/1 3/2/2 4/3/3
f 5/4/4 3/2/4 6/5/5
f 4/3/6 3/2/7 5/4/8
f 6/5/5 7/6/9 5/4/4
f 5/4/10 8/7/11 9/8/12
f 10/9/13 9/8/14 8/7/15
f 9/8/12 11/10/16 5/4/10
f 5/4/8 11/10/17 4/3/6
f 9/8/14 10/9/13 12/11/18
f 4/3/19 11/10/20 13/12/19
f 11/10/21 9/8/22 13/12/23
f 9/8/22 14/13/24 13/12/23
f 9/8/25 12/11/26 15/14/27
f 15/14/27 14/13/28 9/8/25
f 16/15/29 12/11/30 10/9/31
f 15/14/32 12/11/33 16/15/34
f 14/13/35 17/16/35 13/12/35
f 15/14/36 17/16/36 14/13/36
f 13/12/19 18/17/19 4/3/19
f 13/12/37 17/16/37 18/17/37
f 19/18/38 4/3/39 18/17/40
f 4/3/3 19/18/41 2/1/1
f 18/17/40 20/19/42 19/18/38
f 18/17/43 17/16/43 20/19/43
f 20/19/44 21/20/45 19/18/46
f 20/19/47 17/16/47 21/20/47
f 22/21/48 2/1/49 19/18/50
f 19/18/46 21/20/45 22/21/51
f 2/1/49 22/21/48 23/22/52
f 22/21/53 21/20/54 24/23/55
f 21/20/56 17/16/56 24/23/56
f 23/22/57 22/21/58 25/24/59
f 25/24/60 22/21/53 24/23/55
f 23/22/57 25/24/59 26/25/61
f 23/22/62 26/25/63 27/26/64
f 27/26/64 28/27/65 23/22/62
f 29/28/66 26/25/67 25/24/68
f 30/29/69 25/24/70 24/23/71
f 25/24/68 30/29/72 29/28/66
f 24/23/71 31/30/73 30/29/69
f 24/23/74 17/16/74 31/30/74
f 30/29/75 31/30/76 32/31/75
f 31/30/77 17/16/77 32/31/77
f 29/28/78 30/29/79 33/32/80
f 32/31/75 33/32/81 30/29/75
f 33/32/80 34/33/82 29/28/78
f 35/34/83 33/32/84 32/31/85
f 35/34/86 34/33/86 33/32/87
f 32/31/88 17/16/88 36/35/88
f 32/31/85 36/35/89 35/34/83
f 36/35/90 17/16/90 37/36/90
f 37/36/91 17/16/91 38/37/91
f 38/37/92 17/16/92 15/14/92
f 36/35/93 37/36/94 39/38/95
f 39/38/96 37/36/97 38/37/98
f 39/38/95 35/34/99 36/35/93
f 16/15/34 38/37/100 15/14/32
f 38/37/98 16/15/101 39/38/96
f 40/39/102 39/38/103 16/15/104
f 35/34/105 39/38/106 40/39/107
f 16/15/104 41/40/108 40/39/102
f 10/9/31 41/40/109 16/15/29
f 41/40/110 10/9/111 42/41/112
f 40/39/107 43/42/113 35/34/105
f 34/33/86 35/34/86 43/42/114
f 42/41/112 44/43/115 41/40/110
f 34/33/116 43/42/117 45/44/118
f 45/44/118 46/45/119 34/33/116
f 47/46/120 48/47/121 49/48/122
f 50/49/123 49/48/124 48/47/125
f 51/50/126 48/47/127 47/46/128
f 48/47/125 52/51/123 50/49/123
f 52/51/129 48/47/130 51/50/131
f 51/50/131 53/52/132 52/51/129
f 54/53/133 53/52/134 51/50/135
f 51/50/135 55/54/136 54/53/133
f 55/54/137 51/50/138 56/55/139
f 47/46/128 56/55/140 51/50/126
f 57/56/141 56/55/142 47/46/143
f 56/55/139 58/57/144 55/54/137
f 58/57/145 59/58/146 55/54/147
f 56/55/148 57/56/149 60/59/150
f 60/59/150 58/57/151 56/55/148
f 61/60/152 60/59/153 57/56/154
f 58/57/155 60/59/156 62/61/157
f 58/57/145 63/62/158 59/58/146
f 62/61/157 63/62/159 58/57/155
f 57/56/154 64/63/160 61/60/152
f 57/56/161 65/64/162 64/63/163
f 66/65/164 67/66/165 68/67/166
f 69/68/167 70/69/168 71/70/169
f 72/71/170 71/70/171 70/69/172
f 73/72/173 74/73/174 75/74/175
f 75/74/175 69/68/176 73/72/173
f 74/73/177 73/72/178 76/75/178
f 73/72/179 71/70/180 77/76/181
f 77/76/181 76/75/182 73/72/179
f 76/75/178 78/77/183 74/73/177
f 79/78/184 78/77/185 76/75/186
f 79/78/184 76/75/186 80/79/187
f 80/79/188 76/75/189 77/76/190
f 81/80/191 79/78/192 80/79/193
f 81/80/194 80/79/194 82/81/194
f 82/81/195 83/82/196 84/83/197
f 82/81/195 80/79/198 83/82/196
f 66/65/199 84/83/200 83/82/201
f 80/79/188 77/76/190 83/82/202
f 83/82/201 85/84/203 66/65/199
f 66/65/164 85/84/204 67/66/165
f 83/82/205 77/76/206 86/85/207
f 83/82/205 86/85/207 85/84/208
f 86/85/209 77/76/210 71/70/211
f 85/84/212 87/86/213 67/66/214
f 85/84/212 86/85/215 87/86/213
f 71/70/211 88/87/216 86/85/209
f 87/86/217 86/85/218 88/87/219
f 71/70/171 72/71/170 88/87/220
f 88/87/219 89/88/221 87/86/217
f 72/71/222 90/89/223 89/88/224
f 49/48/225 50/49/226 28/90/227
f 28/90/227 27/91/228 49/48/225
f 91/92/229 27/91/230 26/93/231
f 26/93/231 29/94/232 91/92/229
f 91/92/233 29/94/234 34/95/235
f 34/95/235 46/96/236 91/92/233
f 46/96/237 45/97/238 92/98/239
f 93/99/240 91/92/241 46/96/242
f 27/91/243 91/92/244 93/99/245
f 93/99/245 49/48/246 27/91/243
f 46/96/242 94/100/247 93/99/240
f 92/98/239 94/100/248 46/96/237
f 49/48/122 93/99/120 47/46/120
f 47/46/249 93/99/250 94/100/251
f 95/101/252 94/100/253 92/98/254
f 94/100/251 95/101/255 47/46/249
f 92/98/254 65/64/256 95/101/252
f 95/101/257 65/64/162 57/56/161
f 47/46/143 95/101/258 57/56/141
f 96/102/259 64/103/260 65/104/261
f 97/105/262 61/106/263 64/103/264
f 64/103/260 96/102/259 97/105/265
f 61/106/263 97/105/262 98/107/266
f 98/107/267 99/108/268 61/106/269
f 100/109/270 97/105/271 96/102/272
f 99/108/268 98/107/267 101/110/273
f 96/102/272 102/111/274 100/109/270
f 96/102/275 103/112/275 102/111/276
f 97/105/277 100/109/278 104/113/279
f 104/113/279 98/107/280 97/105/277
f 98/107/281 104/113/282 105/114/283
f 105/114/283 101/110/284 98/107/281
f 104/113/285 106/115/286 107/116/287
f 108/117/288 109/118/289 110/119/290
f 111/120/291 112/121/292 110/119/293
f 66/122/294 68/123/295 108/117/296
f 113/124/297 114/125/298 115/126/299
f 113/124/300 115/126/300 81/127/300
f 113/124/301 116/128/301 114/125/301
f 117/129/302 118/130/303 116/128/304
f 81/127/305 82/131/305 113/124/305
f 119/132/306 116/128/307 113/124/308
f 119/132/309 113/124/310 82/131/311
f 116/128/304 120/133/312 117/129/302
f 119/132/306 120/133/313 116/128/307
f 110/119/314 117/129/315 120/133/316
f 121/134/317 110/119/318 120/133/319
f 120/133/319 119/132/320 121/134/317
f 110/119/290 121/134/321 108/117/288
f 108/117/296 121/134/322 66/122/294
f 121/134/323 119/132/324 84/135/325
f 82/131/311 84/135/326 119/132/309
f 84/135/325 66/122/327 121/134/323
f 40/136/328 41/137/329 122/138/330
f 43/139/331 40/136/332 122/138/331
f 122/138/330 41/137/329 44/140/333
f 44/140/334 42/141/335 123/142/336
f 122/138/331 45/143/331 43/139/331
f 122/138/337 44/140/338 124/144/339
f 45/143/340 122/138/341 124/144/342
f 124/144/339 44/140/338 103/112/343
f 124/144/342 92/145/344 45/143/340
f 103/112/275 96/102/275 124/144/345
f 92/145/346 124/144/347 96/102/348
f 96/102/348 65/104/349 92/145/346
f 125/41/350 126/43/351 127/146/352
f 128/147/353 129/148/354 130/42/355
f 127/146/356 129/148/357 128/147/358
f 59/149/359 130/42/360 54/44/361
f 127/146/352 131/150/362 125/41/350
f 54/44/361 55/45/363 59/149/359
f 62/151/364 60/26/365 61/27/366
f 63/28/367 87/152/368 59/149/369
f 87/152/370 63/28/371 62/151/372
f 62/151/364 61/27/366 99/153/373
f 105/154/374 104/5/375 107/6/376
f 107/6/376 132/4/377 105/154/374
f 133/155/378 134/156/379 131/150/380
f 132/4/381 134/156/382 133/155/383
f 105/154/384 132/4/385 111/157/386
f 133/155/383 111/157/387 132/4/381
f 111/157/386 109/158/388 105/154/384
f 105/154/389 109/158/390 108/159/391
f 108/159/391 101/1/392 105/154/389
f 101/1/393 108/159/394 99/153/395
f 108/159/394 68/160/396 99/153/395
f 62/151/397 99/153/398 68/160/399
f 68/160/399 67/161/400 62/151/397
f 62/151/372 67/161/401 87/152/370
f 131/150/380 135/162/402 133/155/378
f 135/162/403 131/150/404 127/146/405
f 127/146/405 136/163/406 135/162/403
f 128/147/358 136/163/407 127/146/356
f 59/149/369 87/152/368 89/164/408
f 59/149/409 89/164/410 90/165/411
f 90/165/411 130/42/412 59/149/409
f 130/42/355 90/165/413 128/147/353
f 137/104/414 102/166/415 103/167/415
f 102/166/416 137/104/417 106/103/416
f 106/103/416 100/168/416 102/166/416
f 138/102/418 106/103/419 137/104/419
f 100/168/420 106/103/286 104/169/285
f 106/103/419 138/102/418 139/105/421
f 139/105/422 107/106/423 106/103/424
f 140/109/425 139/105/426 138/102/426
f 139/105/427 140/109/428 125/113/429
f 125/113/429 141/107/430 139/105/427
f 107/106/423 139/105/422 141/107/431
f 141/107/432 125/113/433 131/114/434
f 141/107/435 132/108/436 107/106/437
f 131/114/434 134/110/438 141/107/432
f 132/108/436 141/107/435 134/110/439
f 110/170/293 109/171/440 111/123/291
f 112/122/441 111/123/442 133/117/443
f 117/135/315 110/170/314 112/122/444
f 133/117/443 142/134/445 112/122/441
f 117/135/446 112/122/447 142/134/448
f 143/119/449 142/134/450 133/117/451
f 133/117/451 135/118/452 143/119/449
f 135/118/453 136/120/454 144/121/455
f 142/134/456 143/119/457 145/133/458
f 145/133/459 143/119/460 144/121/461
f 145/133/458 146/132/462 142/134/456
f 142/134/448 146/132/463 117/135/446
f 146/132/464 145/133/464 147/128/464
f 147/128/465 148/130/465 149/172/465
f 147/128/466 149/172/467 150/125/468
f 151/124/469 147/128/469 150/125/469
f 146/132/470 147/128/470 151/124/470
f 146/132/471 151/124/472 118/131/473
f 118/131/473 117/135/474 146/132/471
f 151/124/475 150/125/476 152/126/477
f 1/127/478 118/131/479 151/124/480
f 151/124/480 152/126/481 1/127/478
f 78/77/183 153/73/482 74/73/177
f 1/127/483 153/173/484 114/173/485
f 81/80/191 153/78/486 79/78/192
f 75/78/487 153/77/488 154/77/489
f 118/131/490 1/127/483 114/173/485
f 114/173/491 116/174/491 118/131/491
f 155/175/492 156/111/493 157/112/494
f 158/144/495 7/140/496 157/112/497
f 138/102/498 157/112/499 156/111/498
f 157/112/499 138/102/498 158/144/500
f 156/111/501 155/175/502 140/109/503
f 138/102/426 156/111/504 140/109/425
f 159/138/505 7/140/496 158/144/495
f 159/138/506 5/137/507 7/140/508
f 8/136/509 5/137/507 159/138/506
f 10/139/510 8/136/511 159/138/512
f 42/143/513 159/138/514 158/144/515
f 159/138/512 42/143/516 10/139/510
f 158/144/515 123/145/513 42/143/513
f 123/145/517 158/144/518 138/102/519
f 123/145/336 103/167/520 44/176/334
f 103/167/415 123/145/521 137/104/414
f 138/102/519 137/104/522 123/145/517
f 160/46/523 50/100/524 52/101/525
f 160/46/526 52/101/527 53/56/528
f 53/56/528 161/55/529 160/46/526
f 162/50/530 160/46/531 161/55/532
f 161/55/533 53/56/534 54/59/535
f 161/55/536 126/54/537 162/50/538
f 125/53/539 162/50/540 126/54/541
f 126/54/537 161/55/536 163/57/542
f 54/59/535 163/57/543 161/55/533
f 163/57/544 127/58/545 126/54/546
f 163/57/547 54/59/548 130/61/549
f 130/61/549 129/62/550 163/57/547
f 127/58/545 163/57/544 129/62/551
f 135/89/453 144/87/455 143/71/552
f 144/87/553 136/88/554 128/86/555
f 144/87/461 164/70/556 145/69/459
f 128/86/555 165/85/557 144/87/553
f 164/70/558 144/87/559 165/85/560
f 72/84/561 165/85/562 128/86/563
f 148/72/564 145/69/565 164/70/566
f 145/69/565 148/72/564 147/68/567
f 165/85/560 166/76/568 164/70/558
f 148/72/569 164/70/569 166/76/569
f 70/82/570 166/76/571 165/85/572
f 165/85/572 72/84/573 70/82/570
f 166/76/569 167/75/569 148/72/569
f 149/73/574 148/72/574 167/75/574
f 166/76/575 69/79/576 167/75/576
f 166/76/575 70/82/575 69/79/576
f 167/75/577 69/79/577 75/78/577
f 167/75/578 154/77/579 149/73/580
f 167/75/581 75/78/487 154/77/489
f 149/172/467 153/125/582 150/125/468
f 115/126/583 153/127/583 81/127/583
f 74/73/174 153/74/584 75/74/175
f 150/125/476 153/126/585 152/126/477
f 154/77/579 153/73/586 149/73/580
f 114/125/298 153/126/587 115/126/299
f 79/78/184 153/77/588 78/77/185
f 152/126/481 153/127/589 1/127/478
f 71/83/169 73/81/590 69/79/167
f 89/67/224 88/65/591 72/84/222
f 128/86/563 90/66/592 72/84/561
f 2/94/593 23/95/594 168/92/595
f 3/93/596 2/94/597 168/92/598
f 168/92/598 6/91/599 3/93/596
f 6/91/600 168/92/601 169/99/602
f 168/92/595 23/95/594 28/96/603
f 168/92/604 28/96/605 169/99/606
f 169/99/602 170/48/607 6/91/600
f 169/99/606 28/96/605 50/100/608
f 7/90/609 6/91/610 170/48/611
f 170/48/612 169/99/613 160/46/614
f 50/100/524 160/46/523 169/99/615
f 170/48/611 157/49/616 7/90/609
f 160/46/614 155/47/617 170/48/612
f 157/49/494 170/48/618 155/47/492
f 140/52/503 155/47/502 162/50/619
f 160/46/531 162/50/530 155/47/620
f 140/52/621 162/50/540 125/53/539
