# Blender 5.2.0 LTS
# www.blender.org
mtllib void daggers white.mtl
o Voidpistol.003
v -0.119369 -0.118734 0.004661
v -0.134132 -0.119182 0.018611
v -0.133620 -0.133898 0.004241
v -0.137764 -0.132777 0.008292
v -0.139292 -0.137339 0.004134
v -0.133368 -0.119226 -0.010113
v -0.137525 -0.132869 0.000072
v -0.141617 -0.131709 0.004040
v -0.148373 -0.119224 0.003853
v -0.134361 -0.101860 0.024403
v -0.156068 -0.094894 0.003578
v -0.136081 -0.086010 0.027067
v -0.134812 -0.086131 -0.018758
v -0.133245 -0.101918 -0.016056
v -0.114562 -0.077059 0.004670
v -0.145533 -0.065994 0.029016
v -0.123073 -0.053863 0.004409
v -0.115638 -0.095564 0.004687
v -0.144800 -0.038580 0.003756
v -0.162432 -0.051527 0.025887
v -0.165888 -0.078717 0.003305
v -0.176746 -0.066476 0.002934
v -0.179200 -0.047541 0.018090
v -0.187029 -0.059164 0.002644
v -0.198965 -0.047220 0.002363
v -0.170562 -0.035925 0.003050
v -0.161163 -0.051662 -0.019224
v -0.178343 -0.047663 -0.012316
v -0.144155 -0.066019 -0.021393
v -0.103057 0.218891 0.001234
v -0.053983 0.394619 -0.007961
v -0.094065 0.217579 -0.007959
v -0.062536 0.397878 0.001233
v -0.000000 0.479301 -0.007963
v -0.052317 0.128883 0.010362
v -0.095222 0.072270 0.001235
v -0.044244 0.124437 0.001233
v 0.000000 0.232505 0.001232
v 0.095337 0.072153 0.001229
v 0.108472 0.066171 -0.007615
v 0.122013 0.019694 0.001229
v 0.000000 0.479301 0.010425
v 0.062536 0.397878 0.001229
v 0.000000 0.495976 0.001231
v 0.103058 0.218891 0.001229
v 0.053983 0.394619 -0.007964
v -0.108472 0.066171 -0.007608
v 0.052318 0.128883 -0.007899
v 0.102909 0.077112 -0.007727
v -0.108472 0.066171 0.010079
v -0.102909 0.077112 0.010191
v -0.053983 0.394619 0.010427
v -0.052318 0.128883 -0.007895
v 0.052318 0.128883 0.010359
v 0.000000 0.268388 0.010425
v 0.108473 0.066171 0.010072
v 0.102909 0.077112 0.010185
v 0.094065 0.217579 0.010422
v 0.053984 0.394619 0.010424
v 0.044074 0.124611 0.001230
v -0.102909 0.077112 -0.007721
v -0.000000 0.268388 -0.007963
v -0.094064 0.217579 0.010426
v 0.094064 0.217579 -0.007964
v -0.122013 0.019694 0.001236
v 0.017899 -0.229232 0.084056
v 0.013375 -0.207473 0.062773
v 0.008850 -0.229232 0.041490
v 0.013375 -0.250990 0.062773
v 0.050568 -0.229232 0.069510
v 0.037778 -0.207473 0.051907
v 0.024988 -0.229232 0.034304
v 0.037778 -0.250990 0.051907
v 0.047758 -0.207473 0.042921
v 0.031588 -0.229232 0.028362
v 0.047758 -0.250990 0.042921
v 0.074495 -0.229232 0.042934
v 0.055652 -0.207473 0.032055
v 0.036808 -0.229232 0.021176
v 0.055652 -0.250990 0.032055
v 0.085545 -0.229232 0.008924
v 0.063905 -0.207473 0.006650
v 0.042266 -0.229232 0.004376
v 0.063905 -0.250990 0.006650
v 0.081806 -0.229232 -0.026641
v 0.061113 -0.207473 -0.019916
v 0.040419 -0.229232 -0.013192
v 0.061113 -0.250990 -0.019916
v 0.063925 -0.229232 -0.057610
v 0.047756 -0.207473 -0.043050
v 0.031586 -0.229232 -0.028490
v 0.047756 -0.250990 -0.043050
v 0.034994 -0.229232 -0.078629
v 0.026144 -0.207473 -0.058751
v 0.017295 -0.229232 -0.038873
v 0.026144 -0.250990 -0.058751
v 0.000015 -0.229232 -0.086063
v 0.000015 -0.207473 -0.064304
v 0.000016 -0.229232 -0.042545
v 0.000015 -0.250990 -0.064304
v -0.034964 -0.229232 -0.078627
v -0.026114 -0.207473 -0.058749
v -0.017263 -0.229232 -0.038872
v -0.026114 -0.250990 -0.058749
v -0.063895 -0.229232 -0.057606
v -0.047724 -0.207473 -0.043048
v -0.031554 -0.229232 -0.028489
v -0.047724 -0.250990 -0.043048
v -0.081774 -0.229232 -0.026637
v -0.061080 -0.207473 -0.019913
v -0.040386 -0.229232 -0.013190
v -0.061080 -0.250990 -0.019913
v -0.085511 -0.229232 0.008928
v -0.063872 -0.207473 0.006653
v -0.042232 -0.229232 0.004378
v -0.063872 -0.250990 0.006653
v -0.074460 -0.229232 0.042938
v -0.055616 -0.207473 0.032058
v -0.036773 -0.229232 0.021178
v -0.055616 -0.250990 0.032058
v -0.050531 -0.229232 0.069513
v -0.037741 -0.207473 0.051909
v -0.024952 -0.229232 0.034306
v -0.037741 -0.250990 0.051909
v -0.017861 -0.229232 0.084057
v -0.013338 -0.207473 0.062773
v -0.008815 -0.229232 0.041490
v -0.013338 -0.250990 0.062773
v 0.000018 -0.323949 0.057269
v 0.000018 -0.304869 0.042764
v 0.000017 -0.323949 0.028257
v 0.000018 -0.343029 0.042764
v 0.023338 -0.323949 0.052312
v 0.017437 -0.304869 0.039060
v 0.011537 -0.323949 0.025809
v 0.017437 -0.343029 0.039060
v 0.042624 -0.323949 0.038299
v 0.031844 -0.304869 0.028592
v 0.021064 -0.323949 0.018887
v 0.031844 -0.343029 0.028592
v 0.054544 -0.323949 0.017652
v 0.040748 -0.304869 0.013170
v 0.026952 -0.323949 0.008688
v 0.040748 -0.343029 0.013170
v 0.057035 -0.323949 -0.006058
v 0.042609 -0.304869 -0.004541
v 0.028182 -0.323949 -0.003024
v 0.042609 -0.343029 -0.004541
v 0.049668 -0.323949 -0.028731
v 0.037106 -0.304869 -0.021478
v 0.024543 -0.323949 -0.014225
v 0.037106 -0.343029 -0.021478
v 0.033715 -0.323949 -0.046448
v 0.025189 -0.304869 -0.034712
v 0.016663 -0.323949 -0.022976
v 0.025189 -0.343029 -0.034712
v 0.011935 -0.323949 -0.056144
v 0.008920 -0.304869 -0.041955
v 0.005904 -0.323949 -0.027766
v 0.008920 -0.343029 -0.041955
v -0.011905 -0.323949 -0.056143
v -0.008889 -0.304869 -0.041954
v -0.005872 -0.323949 -0.027766
v -0.008889 -0.343029 -0.041954
v -0.033684 -0.323949 -0.046446
v -0.025157 -0.304869 -0.034711
v -0.016630 -0.323949 -0.022975
v -0.025157 -0.343029 -0.034711
v -0.049636 -0.323949 -0.028729
v -0.037073 -0.304869 -0.021476
v -0.024510 -0.323949 -0.014223
v -0.037073 -0.343029 -0.021476
v -0.057002 -0.323949 -0.006055
v -0.042576 -0.304869 -0.004539
v -0.028149 -0.323949 -0.003023
v -0.042576 -0.343029 -0.004539
v -0.054509 -0.323949 0.017655
v -0.040714 -0.304869 0.013172
v -0.026918 -0.323949 0.008689
v -0.040714 -0.343029 0.013172
v -0.042589 -0.323949 0.038301
v -0.031809 -0.304869 0.028594
v -0.021029 -0.323949 0.018888
v -0.031809 -0.343029 0.028594
v -0.023301 -0.323949 0.052313
v -0.017401 -0.304869 0.039061
v -0.011502 -0.323949 0.025809
v -0.017401 -0.343029 0.039061
v 0.015564 -0.412366 0.034853
v 0.011630 -0.395295 0.026019
v 0.007697 -0.412366 0.017185
v 0.011630 -0.429437 0.026019
v 0.033119 -0.412366 0.019047
v 0.024743 -0.395295 0.014212
v 0.016368 -0.412366 0.009377
v 0.024743 -0.429437 0.014212
v 0.038029 -0.412366 -0.004060
v 0.028412 -0.395295 -0.003049
v 0.018794 -0.412366 -0.002037
v 0.028412 -0.429437 -0.003049
v 0.028421 -0.412366 -0.025640
v 0.021234 -0.395295 -0.019169
v 0.014048 -0.412366 -0.012698
v 0.021234 -0.429437 -0.019169
v 0.007963 -0.412366 -0.037450
v 0.005952 -0.395295 -0.027991
v 0.003942 -0.412366 -0.018532
v 0.005952 -0.429437 -0.027991
v -0.015530 -0.412366 -0.034980
v -0.011597 -0.395295 -0.026146
v -0.007663 -0.412366 -0.017312
v -0.011597 -0.429437 -0.026146
v -0.033085 -0.412366 -0.019174
v -0.024710 -0.395295 -0.014339
v -0.016334 -0.412366 -0.009503
v -0.024710 -0.429437 -0.014339
v -0.037996 -0.412366 0.003933
v -0.028378 -0.395295 0.002922
v -0.018761 -0.412366 0.001911
v -0.028378 -0.429437 0.002922
v -0.028387 -0.412366 0.025513
v -0.021201 -0.395295 0.019042
v -0.014014 -0.412366 0.012571
v -0.021201 -0.429437 0.019042
v -0.007929 -0.412366 0.037323
v -0.005919 -0.395295 0.027864
v -0.003908 -0.412366 0.018405
v -0.005919 -0.429437 0.027864
v 0.134130 -0.119182 0.018605
v 0.119366 -0.118734 0.004655
v 0.133617 -0.133898 0.004235
v 0.137761 -0.132777 0.008285
v 0.139289 -0.137339 0.004127
v 0.133365 -0.119226 -0.010120
v 0.137521 -0.132869 0.000065
v 0.141614 -0.131709 0.004033
v 0.148370 -0.119224 0.003846
v 0.134359 -0.101860 0.024396
v 0.156065 -0.094894 0.003570
v 0.136079 -0.086010 0.027060
v 0.134808 -0.086131 -0.018764
v 0.133241 -0.101918 -0.016062
v 0.114559 -0.077059 0.004664
v 0.145532 -0.065994 0.029008
v 0.123070 -0.053863 0.004403
v 0.115635 -0.095564 0.004681
v 0.144797 -0.038580 0.003748
v 0.162430 -0.051527 0.025879
v 0.165885 -0.078717 0.003297
v 0.176743 -0.066476 0.002925
v 0.179197 -0.047541 0.018081
v 0.187026 -0.059164 0.002635
v 0.198962 -0.047220 0.002353
v 0.170559 -0.035925 0.003042
v 0.161159 -0.051662 -0.019232
v 0.178339 -0.047663 -0.012325
v 0.144150 -0.066019 -0.021400
v 0.151226 -0.240774 -0.016037
v 0.152717 -0.260119 -0.000218
v 0.139519 -0.253003 0.000366
v 0.157965 -0.254818 -0.007577
v 0.162888 -0.267235 -0.000593
v 0.151866 -0.240659 0.016003
v 0.158250 -0.254711 0.006821
v 0.148833 -0.175379 0.000485
v 0.145185 -0.220022 0.022859
v 0.160078 -0.197978 -0.000127
v 0.163493 -0.228541 -0.000407
v 0.134210 -0.196741 0.022739
v 0.163570 -0.249299 -0.000524
v 0.129408 -0.242248 0.000838
v 0.118827 -0.218095 0.001338
v 0.125292 -0.186791 0.019492
v 0.113043 -0.205857 0.001687
v 0.110707 -0.191571 0.001829
v 0.117981 -0.180282 0.012396
v 0.108866 -0.175998 0.001942
v 0.133315 -0.196958 -0.020945
v 0.136834 -0.167837 0.000975
v 0.124523 -0.186974 -0.016938
v 0.124846 -0.169010 0.001363
v 0.117549 -0.180296 -0.009192
v 0.144262 -0.220200 -0.022124
v -0.152721 -0.260119 -0.000210
v -0.151230 -0.240774 -0.016029
v -0.139523 -0.253003 0.000373
v -0.157968 -0.254818 -0.007569
v -0.162892 -0.267235 -0.000585
v -0.151869 -0.240659 0.016011
v -0.158254 -0.254711 0.006829
v -0.145187 -0.220022 0.022866
v -0.148836 -0.175378 0.000492
v -0.160081 -0.197978 -0.000119
v -0.163496 -0.228541 -0.000399
v -0.134213 -0.196741 0.022746
v -0.163573 -0.249299 -0.000516
v -0.129411 -0.242248 0.000844
v -0.118831 -0.218095 0.001344
v -0.125295 -0.186791 0.019498
v -0.113047 -0.205857 0.001693
v -0.110710 -0.191571 0.001834
v -0.117984 -0.180282 0.012402
v -0.108869 -0.175998 0.001947
v -0.136838 -0.167837 0.000982
v -0.133319 -0.196958 -0.020938
v -0.124528 -0.186974 -0.016932
v -0.124850 -0.169010 0.001369
v -0.117553 -0.180296 -0.009186
v -0.144267 -0.220200 -0.022117
v 0.013633 -0.187001 -0.009069
v 0.001619 0.055814 0.059035
v 0.031592 0.055811 0.050139
v 0.022369 0.069333 0.035111
v 0.053101 0.055724 0.027470
v 0.038640 0.038224 0.061635
v 0.064926 0.038115 0.033878
v 0.060362 0.055682 -0.002947
v 0.042823 0.069270 -0.002452
v 0.051479 0.055628 -0.032858
v 0.037632 0.069330 0.019059
v 0.036514 0.069177 -0.023687
v 0.019630 0.077799 0.009354
v 0.022308 0.077845 -0.001943
v 0.019013 0.077771 -0.013078
v 0.020395 0.069239 -0.038993
v 0.000011 0.080774 -0.001307
v 0.011641 0.077830 0.017630
v 0.001149 0.069286 0.041449
v 0.000583 0.077821 0.020923
v -0.010601 0.077803 0.018341
v -0.020389 0.069275 0.036317
v -0.028775 0.055739 0.051760
v -0.019016 0.077849 0.010325
v -0.036483 0.069297 0.021106
v -0.051477 0.055684 0.030251
v -0.062922 0.038099 0.037361
v -0.035163 0.038198 0.063666
v -0.060346 0.055646 0.000328
v -0.042800 0.069204 -0.000160
v -0.022349 0.077772 -0.000805
v -0.019636 0.077785 -0.011951
v -0.037660 0.069181 -0.021737
v -0.053083 0.055586 -0.030080
v -0.022400 0.069187 -0.037807
v -0.011689 0.077792 -0.020349
v -0.000586 0.077797 -0.023652
v 0.010647 0.077781 -0.020937
v -0.001192 0.069135 -0.044191
v -0.001606 0.055591 -0.061626
v 0.028787 0.055570 -0.054387
v 0.062926 0.038028 -0.039956
v -0.031572 0.055604 -0.052727
v 0.035165 0.037927 -0.066263
v -0.038630 0.037900 -0.064230
v -0.064915 0.038011 -0.036469
v -0.085125 -0.004425 0.001124
v -0.072564 -0.004337 0.043395
v -0.070130 0.017637 0.041811
v -0.039212 0.017669 0.071095
v -0.070125 -0.026278 0.041868
v -0.040563 -0.004278 0.073701
v -0.039164 -0.026273 0.071243
v -0.035130 -0.046827 0.063806
v -0.062888 -0.046806 0.037540
v -0.082263 -0.026398 0.001010
v -0.072339 -0.026437 -0.040392
v -0.073783 -0.046916 0.000852
v -0.051720 -0.064028 0.030743
v -0.064886 -0.047002 -0.036325
v -0.038589 -0.047011 -0.064051
v -0.053380 -0.064109 -0.030059
v -0.060699 -0.064051 0.000539
v -0.043031 -0.026533 -0.071313
v -0.044567 -0.004548 -0.073845
v -0.016810 -0.102240 -0.028466
v -0.036677 -0.081984 -0.021013
v -0.021794 -0.082024 -0.036625
v -0.008283 -0.156382 0.014426
v -0.011043 -0.121752 0.019575
v -0.019827 -0.121723 0.011293
v -0.015284 -0.102153 0.027224
v -0.014901 -0.156329 0.008154
v -0.013340 -0.187017 0.007356
v -0.007503 -0.187058 0.012850
v -0.017476 -0.156298 -0.000509
v -0.023317 -0.121758 -0.000393
v -0.015709 -0.186994 -0.000520
v -0.013833 -0.186982 -0.008478
v -0.015342 -0.156315 -0.009448
v -0.008007 -0.187020 -0.014561
v -0.009003 -0.156372 -0.015998
v -0.020483 -0.121793 -0.012174
v -0.012172 -0.121755 -0.020915
v -0.028227 -0.102220 -0.016296
v -0.032088 -0.102252 -0.000140
v -0.041717 -0.081997 0.000042
v -0.027335 -0.102231 0.015852
v -0.035561 -0.081915 0.020755
v -0.019834 -0.081940 0.035694
v -0.073813 0.038100 0.000709
v -0.043043 0.017408 -0.071370
v -0.082272 0.017498 0.000953
v -0.072346 0.017452 -0.040451
v -0.074866 -0.004500 -0.041747
v -0.002280 -0.004489 -0.086381
v -0.002188 -0.026527 -0.083436
v -0.001947 -0.047001 -0.074913
v -0.031751 -0.064177 -0.052882
v 0.039257 -0.026454 -0.073508
v -0.001604 -0.064178 -0.061838
v 0.040602 -0.004488 -0.076116
v 0.039251 0.017454 -0.073562
v 0.035213 -0.046964 -0.066087
v 0.028981 -0.064197 -0.054550
v 0.070173 -0.026421 -0.044226
v 0.062972 -0.046870 -0.039778
v -0.001103 -0.082014 -0.042827
v 0.019924 -0.082040 -0.037849
v 0.015380 -0.102302 -0.029333
v 0.035661 -0.081981 -0.022886
v 0.027473 -0.102263 -0.017856
v -0.000375 -0.156358 -0.018513
v 0.007476 -0.187020 -0.014955
v -0.000348 -0.186986 -0.016717
v 0.008417 -0.156328 -0.016420
v 0.020010 -0.121759 -0.013170
v 0.015029 -0.156373 -0.010171
v -0.000635 -0.121816 -0.024385
v 0.011197 -0.121791 -0.021585
v -0.000842 -0.102263 -0.033224
v -0.001985 0.037911 -0.075091
v 0.070167 0.017494 -0.044283
v -0.002195 0.017407 -0.083494
v 0.064962 -0.046789 0.034060
v 0.038658 -0.046788 0.061782
v 0.031819 -0.063970 0.050644
v 0.001179 -0.081872 0.040698
v 0.001698 -0.063984 0.059693
v -0.028908 -0.063950 0.052305
v 0.053450 -0.064044 0.027825
v 0.051829 -0.064148 -0.032899
v 0.041803 -0.081978 -0.002208
v 0.060766 -0.064100 -0.002785
v 0.036787 -0.081905 0.018873
v 0.021914 -0.081881 0.034588
v 0.072608 -0.004448 -0.045808
v 0.085169 -0.004361 -0.003536
v 0.082301 -0.026384 -0.003401
v 0.072391 -0.026238 0.038036
v 0.073860 -0.046881 -0.003117
v 0.032212 -0.102249 -0.001900
v 0.028337 -0.102188 0.014334
v 0.016877 -0.102138 0.026398
v 0.020596 -0.121740 0.010115
v 0.023424 -0.121776 -0.001621
v 0.015453 -0.156349 0.007351
v 0.009302 -0.156341 0.013906
v 0.008412 -0.187048 0.012374
v 0.013915 -0.187006 0.006599
v 0.017635 -0.156320 -0.001265
v 0.015853 -0.186995 -0.001429
v 0.000076 -0.306771 -0.001317
v 0.000598 -0.187027 0.014813
v 0.044597 -0.004341 0.071403
v 0.074909 -0.004281 0.039336
v 0.072380 0.017665 0.037979
v 0.082307 0.017616 -0.003419
v 0.073830 0.038128 -0.003257
v 0.002332 -0.004293 0.083968
v 0.002251 -0.026193 0.081081
v 0.043069 -0.026292 0.068928
v 0.002029 -0.046683 0.072686
v 0.012288 -0.121712 0.018908
v 0.000901 -0.102192 0.031107
v 0.000711 -0.121723 0.022341
v 0.000549 -0.156355 0.016520
v 0.001987 0.038219 0.072500
v 0.002232 0.017741 0.081024
v 0.043080 0.017736 0.068901
vn 0.5781 -0.5597 0.5938
vn 0.4049 -0.6864 0.6041
vn 0.6112 -0.5588 -0.5605
vn 0.4320 -0.6941 -0.5758
vn -0.7435 -0.2971 0.5991
vn -0.7297 -0.3864 0.5641
vn -0.6818 -0.3179 0.6588
vn -0.6991 -0.2350 0.6753
vn -0.7112 -0.2174 0.6686
vn -0.7108 -0.1909 0.6770
vn -0.6732 -0.1892 -0.7149
vn -0.6742 -0.2212 -0.7046
vn -0.6616 -0.2393 -0.7107
vn -0.6453 -0.3209 -0.6932
vn -0.6963 -0.3858 -0.6053
vn -0.7063 -0.3023 -0.6401
vn 0.6513 0.2374 0.7207
vn 0.6513 0.2392 0.7202
vn 0.6520 0.2460 0.7172
vn 0.6519 0.2472 0.7169
vn 0.6843 -0.1110 0.7207
vn 0.4018 0.6147 0.6788
vn 0.4097 0.6122 0.6763
vn 0.4102 0.6120 0.6761
vn 0.4626 -0.6111 0.6423
vn 0.4008 0.6150 0.6791
vn -0.6325 -0.3725 0.6791
vn -0.6328 -0.3710 0.6797
vn -0.6330 -0.3665 0.6819
vn -0.6333 -0.3655 0.6822
vn -0.5470 -0.4926 0.6768
vn -0.5668 -0.4825 0.6677
vn -0.4435 -0.5942 0.6709
vn -0.4503 -0.5930 0.6675
vn -0.4512 -0.5926 0.6673
vn -0.4419 -0.5948 0.6715
vn -0.5367 -0.5207 0.6639
vn 0.0712 0.8352 0.5453
vn -0.0776 0.8101 0.5811
vn -0.3403 0.8286 0.4446
vn 0.1007 0.8321 -0.5454
vn -0.0498 0.8057 -0.5903
vn -0.3164 0.8243 -0.4695
vn 0.7290 -0.0406 0.6833
vn 0.7300 -0.0369 0.6824
vn 0.7288 -0.0418 0.6835
vn 0.7303 -0.0354 0.6822
vn 0.7416 -0.2039 0.6391
vn 0.7648 -0.0429 -0.6429
vn 0.7665 -0.0362 -0.6412
vn 0.7670 -0.0335 -0.6408
vn 0.7762 -0.2097 -0.5946
vn 0.7643 -0.0450 -0.6432
vn 0.7230 -0.1157 -0.6811
vn 0.6902 0.2307 -0.6859
vn 0.4968 -0.6113 -0.6161
vn 0.6907 0.2458 -0.6801
vn 0.4485 0.6096 -0.6536
vn 0.4344 0.6141 -0.6589
vn -0.5948 -0.3704 -0.7134
vn -0.5947 -0.3723 -0.7125
vn -0.5946 -0.3730 -0.7122
vn -0.5949 -0.3699 -0.7137
vn -0.5089 -0.4966 -0.7031
vn -0.5263 -0.4879 -0.6964
vn -0.4144 -0.5943 -0.6893
vn -0.4064 -0.5958 -0.6928
vn -0.4153 -0.5938 -0.6891
vn -0.4045 -0.5964 -0.6933
vn -0.5031 -0.5190 -0.6911
vn -0.6947 0.1573 -0.7019
vn -0.6946 0.1573 -0.7019
vn -0.6038 0.3849 -0.6981
vn 0.5083 -0.4985 0.7023
vn 0.5112 -0.5000 0.6990
vn 0.5126 -0.5009 0.6973
vn 0.5575 -0.2105 0.8031
vn 0.6442 -0.2622 0.7185
vn 0.6534 -0.2675 0.7082
vn -0.6252 -0.3215 -0.7112
vn -0.6254 -0.3240 -0.7098
vn -0.6249 -0.3177 -0.7132
vn 0.6038 0.3849 0.6980
vn 0.6038 0.3849 0.6981
vn 0.6947 0.0661 -0.7163
vn 0.6946 0.1573 -0.7020
vn -0.7086 0.0658 -0.7025
vn -0.5112 -0.5000 -0.6990
vn -0.5083 -0.4985 -0.7023
vn -0.5068 -0.4976 -0.7040
vn 0.6238 -0.3233 0.7116
vn 0.6236 -0.3210 0.7128
vn 0.6239 -0.3246 0.7109
vn -0.6038 0.3849 0.6981
vn 0.6038 0.3849 -0.6981
vn -0.6946 0.1573 0.7020
vn 0.6442 -0.2622 -0.7185
vn 0.5575 -0.2105 -0.8030
vn 0.6534 -0.2675 -0.7082
vn -0.5541 -0.2090 0.8058
vn -0.6442 -0.2616 0.7187
vn -0.5512 -0.2071 0.8083
vn 0.5112 -0.5000 -0.6991
vn 0.5082 -0.4985 -0.7023
vn 0.5126 -0.5009 -0.6974
vn -0.6252 -0.3215 0.7112
vn -0.6254 -0.3240 0.7098
vn -0.6256 -0.3254 0.7091
vn 0.7086 0.0658 0.7025
vn 0.6947 0.1573 0.7019
vn -0.5112 -0.5000 0.6991
vn -0.5082 -0.4985 0.7023
vn -0.5126 -0.5009 0.6973
vn 0.6235 -0.3210 -0.7129
vn 0.6237 -0.3234 -0.7116
vn 0.6239 -0.3246 -0.7109
vn -0.6443 -0.2616 -0.7186
vn -0.5541 -0.2090 -0.8058
vn -0.5512 -0.2071 -0.8082
vn -0.7085 0.0658 0.7026
vn -0.0028 -0.0010 -1.0000
vn -0.0034 -0.0015 -1.0000
vn -0.0020 0.0001 -1.0000
vn -0.0000 -0.0033 1.0000
vn -0.0000 -0.0000 1.0000
vn -0.0005 -0.0002 1.0000
vn 0.5068 -0.4976 0.7039
vn 0.5512 -0.2071 0.8082
vn -0.6256 -0.3254 -0.7090
vn 0.7085 0.0658 -0.7026
vn -0.6947 0.0661 -0.7162
vn -0.5126 -0.5009 -0.6973
vn 0.6232 -0.3175 0.7147
vn 0.5512 -0.2071 -0.8083
vn -0.6504 -0.2657 0.7116
vn 0.5068 -0.4976 -0.7040
vn -0.6248 -0.3177 0.7132
vn 0.6947 0.0661 0.7162
vn -0.5068 -0.4976 0.7040
vn 0.6232 -0.3176 -0.7147
vn -0.6504 -0.2657 -0.7116
vn -0.6947 0.0661 0.7163
vn -0.0048 0.0013 -1.0000
vn 0.0018 -0.0018 -1.0000
vn -0.0194 -0.0005 -0.9998
vn -0.0007 -0.0002 -1.0000
vn -0.0000 -0.0000 -1.0000
vn -0.0001 -0.0000 -1.0000
vn -0.0015 -0.0006 -1.0000
vn 0.0194 -0.0005 -0.9998
vn 0.0047 0.0013 -1.0000
vn 0.0020 -0.0019 1.0000
vn -0.0047 0.0013 1.0000
vn 0.0048 0.0013 1.0000
vn -0.0019 -0.0019 1.0000
vn 0.0194 -0.0005 0.9998
vn 0.0007 -0.0002 1.0000
vn 0.0001 -0.0000 1.0000
vn -0.0193 -0.0005 0.9998
vn 0.0741 0.7052 -0.7052
vn -0.0741 0.7052 -0.7052
vn -0.0741 0.7051 -0.7052
vn 0.0741 -0.7051 -0.7052
vn -0.0741 -0.7052 -0.7052
vn 0.0741 -0.7052 -0.7052
vn -0.0741 -0.7052 0.7052
vn 0.0741 -0.7052 0.7052
vn 0.2191 0.7052 0.6743
vn 0.3545 0.7052 0.6141
vn -0.2192 0.7052 -0.6743
vn -0.3545 0.7052 -0.6141
vn -0.3545 0.7051 -0.6141
vn -0.2192 -0.7051 -0.6743
vn -0.3545 -0.7052 -0.6141
vn -0.2191 -0.7052 -0.6743
vn 0.2191 -0.7052 0.6743
vn 0.3545 -0.7052 0.6141
vn 0.4745 0.7052 0.5269
vn 0.5736 0.7051 0.4168
vn 0.5736 -0.7051 0.4168
vn 0.5736 -0.7052 0.4168
vn 0.4745 -0.7052 0.5269
vn -0.4745 0.7052 -0.5269
vn -0.4745 -0.7052 -0.5269
vn 0.6478 0.7052 0.2884
vn 0.6935 0.7052 0.1474
vn 0.6936 0.7052 0.1474
vn -0.5736 0.7052 -0.4168
vn -0.5736 -0.7052 -0.4168
vn -0.6478 0.7052 -0.2884
vn -0.6936 0.7052 -0.1474
vn -0.6936 0.7051 -0.1474
vn -0.6478 -0.7052 -0.2884
vn -0.6936 -0.7052 -0.1474
vn 0.6478 -0.7052 0.2884
vn 0.6935 -0.7052 0.1474
vn 0.7091 0.7052 -0.0000
vn 0.6936 0.7052 -0.1474
vn -0.7091 0.7052 -0.0000
vn -0.6936 0.7052 0.1474
vn -0.6936 0.7051 0.1474
vn -0.7091 -0.7051 -0.0000
vn -0.6936 -0.7052 0.1474
vn -0.7091 -0.7052 -0.0000
vn 0.7091 -0.7052 -0.0000
vn 0.6936 -0.7052 -0.1474
vn 0.7090 -0.7052 -0.0000
vn 0.6477 0.7052 -0.2884
vn 0.5736 0.7052 -0.4168
vn -0.6477 0.7052 0.2884
vn -0.5736 0.7052 0.4168
vn -0.6477 -0.7052 0.2884
vn -0.5736 -0.7052 0.4168
vn 0.6477 -0.7052 -0.2884
vn 0.5736 -0.7052 -0.4168
vn 0.4744 0.7052 -0.5270
vn 0.3545 0.7052 -0.6140
vn -0.4744 0.7052 0.5270
vn -0.3545 0.7052 0.6141
vn -0.3545 0.7051 0.6141
vn -0.4744 -0.7051 0.5270
vn -0.3545 -0.7052 0.6141
vn -0.4744 -0.7052 0.5270
vn 0.4744 -0.7052 -0.5270
vn 0.3545 -0.7052 -0.6140
vn 0.2191 0.7052 -0.6744
vn -0.2191 0.7052 0.6744
vn -0.0741 0.7052 0.7052
vn -0.0741 0.7051 0.7052
vn -0.2191 -0.7051 0.6744
vn -0.2191 -0.7052 0.6744
vn 0.2191 -0.7052 -0.6744
vn -0.0742 0.7052 -0.7052
vn -0.2191 0.7052 -0.6743
vn 0.0742 0.7052 0.7052
vn 0.2191 0.7051 0.6744
vn 0.0742 -0.7051 0.7052
vn 0.0742 -0.7052 0.7052
vn -0.0742 -0.7052 -0.7052
vn -0.3546 0.7052 -0.6140
vn -0.4744 0.7052 -0.5269
vn 0.3546 0.7052 0.6140
vn 0.4744 0.7052 0.5269
vn 0.4744 0.7051 0.5269
vn 0.3546 -0.7051 0.6140
vn 0.4744 -0.7052 0.5269
vn 0.3546 -0.7052 0.6140
vn -0.3546 -0.7052 -0.6140
vn -0.4744 -0.7052 -0.5269
vn -0.5737 0.7052 -0.4167
vn -0.6477 0.7052 -0.2884
vn 0.5737 0.7052 0.4167
vn 0.6477 0.7052 0.2884
vn 0.6478 0.7051 0.2884
vn 0.5737 -0.7051 0.4167
vn 0.6477 -0.7052 0.2884
vn 0.5737 -0.7052 0.4167
vn -0.5737 -0.7052 -0.4167
vn -0.6477 -0.7052 -0.2884
vn -0.7090 0.7052 -0.0000
vn 0.7090 0.7052 -0.0000
vn 0.7091 0.7051 -0.0000
vn 0.6936 -0.7052 0.1474
vn -0.7090 -0.7052 -0.0000
vn -0.6935 0.7052 0.1475
vn -0.6478 0.7052 0.2884
vn 0.6935 0.7052 -0.1475
vn 0.6478 0.7052 -0.2884
vn 0.6478 0.7051 -0.2884
vn 0.6936 -0.7052 -0.1475
vn 0.6478 -0.7052 -0.2884
vn 0.6935 -0.7052 -0.1475
vn -0.6935 -0.7052 0.1475
vn -0.6478 -0.7052 0.2884
vn -0.4745 0.7052 0.5269
vn 0.4745 0.7052 -0.5269
vn 0.4745 0.7051 -0.5269
vn 0.5736 -0.7051 -0.4168
vn 0.4745 -0.7052 -0.5269
vn -0.4745 -0.7052 0.5269
vn -0.2191 0.7052 0.6743
vn 0.3545 0.7052 -0.6141
vn 0.2191 0.7052 -0.6743
vn 0.2191 0.7051 -0.6744
vn 0.3545 -0.7051 -0.6141
vn 0.2191 -0.7052 -0.6743
vn 0.3545 -0.7052 -0.6141
vn -0.2191 -0.7052 0.6743
vn 0.0834 0.6031 0.7933
vn 0.2465 0.6031 0.7586
vn -0.0834 0.6031 -0.7933
vn -0.2465 0.6031 -0.7586
vn -0.0834 -0.6031 -0.7933
vn -0.2465 -0.6031 -0.7586
vn 0.0834 -0.6031 0.7933
vn 0.2465 -0.6031 0.7586
vn 0.3989 0.6031 0.6908
vn 0.5337 0.6031 0.5928
vn -0.3989 0.6031 -0.6908
vn -0.5337 0.6031 -0.5928
vn -0.3989 -0.6031 -0.6908
vn -0.5337 -0.6031 -0.5928
vn 0.3989 -0.6031 0.6908
vn 0.5337 -0.6031 0.5928
vn 0.6453 0.6031 0.4688
vn 0.7287 0.6031 0.3244
vn -0.6453 0.6031 -0.4688
vn -0.7287 0.6031 -0.3244
vn -0.6453 -0.6031 -0.4688
vn -0.7287 -0.6031 -0.3244
vn 0.6453 -0.6031 0.4688
vn 0.7287 -0.6031 0.3244
vn 0.7802 0.6031 0.1658
vn 0.7977 0.6031 -0.0000
vn -0.7802 0.6031 -0.1658
vn -0.7977 0.6031 -0.0000
vn -0.7802 -0.6031 -0.1658
vn -0.7977 -0.6031 -0.0000
vn 0.7802 -0.6031 0.1658
vn 0.7977 -0.6031 -0.0000
vn 0.7802 0.6031 -0.1659
vn 0.7287 0.6031 -0.3244
vn -0.7802 0.6031 0.1659
vn -0.7287 0.6031 0.3244
vn -0.7802 -0.6031 0.1659
vn -0.7287 -0.6031 0.3244
vn 0.7802 -0.6031 -0.1659
vn 0.7287 -0.6031 -0.3244
vn 0.6453 0.6031 -0.4689
vn 0.5337 0.6031 -0.5928
vn -0.6453 0.6031 0.4689
vn -0.5337 0.6031 0.5928
vn -0.6453 -0.6031 0.4689
vn -0.5337 -0.6031 0.5928
vn 0.6453 -0.6031 -0.4689
vn 0.5337 -0.6031 -0.5928
vn 0.3988 0.6031 -0.6908
vn 0.2465 0.6031 -0.7586
vn -0.3988 0.6031 0.6908
vn -0.2465 0.6031 0.7586
vn -0.3988 -0.6031 0.6908
vn -0.2465 -0.6031 0.7586
vn 0.3988 -0.6031 -0.6908
vn 0.2465 -0.6031 -0.7586
vn 0.0833 0.6031 -0.7933
vn -0.0833 0.6031 0.7933
vn -0.0833 -0.6031 0.7933
vn 0.0833 -0.6031 -0.7933
vn -0.3988 0.6031 -0.6908
vn 0.3988 0.6031 0.6908
vn 0.3988 -0.6031 0.6908
vn -0.3988 -0.6031 -0.6908
vn -0.5338 0.6031 -0.5927
vn 0.5338 0.6031 0.5928
vn 0.5338 -0.6031 0.5928
vn -0.5338 -0.6031 -0.5928
vn -0.5338 -0.6031 -0.5927
vn 0.7802 0.6031 0.1659
vn 0.7802 0.6031 -0.1658
vn 0.7802 -0.6031 -0.1658
vn -0.7287 0.6031 0.3245
vn 0.7287 0.6031 -0.3245
vn 0.7287 -0.6031 -0.3245
vn -0.7287 -0.6031 0.3245
vn 0.3989 0.6031 -0.6908
vn -0.0834 0.6031 0.7933
vn 0.0834 0.6031 -0.7933
vn 0.0834 -0.6031 -0.7933
vn -0.0834 -0.6031 0.7933
vn -0.0910 0.4908 0.8665
vn 0.2692 0.4908 0.8286
vn -0.0909 0.4909 0.8665
vn 0.0910 0.4909 -0.8665
vn -0.2692 0.4909 -0.8286
vn -0.2692 0.4908 -0.8286
vn 0.0910 0.4908 -0.8665
vn 0.0910 -0.4908 -0.8665
vn -0.2692 -0.4908 -0.8286
vn -0.2692 -0.4909 -0.8286
vn 0.0910 -0.4909 -0.8665
vn -0.0909 -0.4908 0.8665
vn 0.2692 -0.4909 0.8286
vn 0.2692 -0.4908 0.8286
vn -0.0910 -0.4908 0.8665
vn 0.4357 0.4908 0.7545
vn 0.7048 0.4908 0.5122
vn 0.7048 0.4909 0.5122
vn 0.4357 0.4909 0.7545
vn -0.4357 0.4908 -0.7545
vn -0.7048 0.4909 -0.5122
vn -0.7048 0.4908 -0.5122
vn -0.4357 0.4909 -0.7545
vn -0.4357 -0.4908 -0.7545
vn -0.7048 -0.4908 -0.5122
vn -0.4357 -0.4909 -0.7545
vn 0.4357 -0.4908 0.7545
vn 0.7048 -0.4909 0.5122
vn 0.7048 -0.4908 0.5122
vn 0.7960 0.4908 0.3543
vn 0.8712 0.4909 0.0001
vn -0.7960 0.4908 -0.3543
vn -0.8712 0.4909 -0.0001
vn -0.8713 0.4908 -0.0001
vn -0.7960 0.4909 -0.3543
vn -0.7960 -0.4908 -0.3543
vn -0.8712 -0.4908 -0.0001
vn -0.8712 -0.4909 -0.0001
vn -0.7960 -0.4909 -0.3542
vn 0.7960 -0.4908 0.3543
vn 0.8712 -0.4909 0.0001
vn 0.7960 -0.4909 0.3543
vn 0.8522 0.4908 -0.1813
vn 0.7049 0.4909 -0.5120
vn 0.7049 0.4908 -0.5121
vn -0.8522 0.4908 0.1812
vn -0.7049 0.4909 0.5120
vn -0.7049 0.4908 0.5120
vn -0.8522 0.4909 0.1812
vn -0.8522 -0.4908 0.1812
vn -0.7049 -0.4908 0.5120
vn -0.8522 -0.4909 0.1812
vn 0.8522 -0.4908 -0.1813
vn 0.7049 -0.4908 -0.5121
vn 0.7049 -0.4909 -0.5120
vn 0.8522 -0.4909 -0.1813
vn 0.5829 0.4908 -0.6475
vn 0.2693 0.4908 -0.8286
vn 0.5829 0.4909 -0.6475
vn -0.5829 0.4908 0.6475
vn -0.2693 0.4909 0.8286
vn -0.2693 0.4908 0.8286
vn -0.5829 -0.4908 0.6475
vn -0.2693 -0.4909 0.8286
vn -0.2693 -0.4908 0.8286
vn -0.5829 -0.4909 0.6475
vn 0.5829 -0.4909 -0.6475
vn 0.2693 -0.4908 -0.8286
vn 0.5829 -0.4908 -0.6475
vn 0.0909 0.4909 -0.8665
vn 0.2692 0.4909 0.8286
vn -0.0910 -0.4909 0.8665
vn 0.0909 -0.4908 -0.8665
vn 0.4357 -0.4909 0.7545
vn -0.7048 -0.4909 -0.5122
vn -0.8712 0.4908 -0.0001
vn 0.8713 0.4908 0.0001
vn 0.8712 -0.4908 0.0001
vn 0.8713 -0.4908 0.0001
vn -0.7960 -0.4909 -0.3543
vn -0.8713 -0.4908 -0.0001
vn -0.8522 0.4908 0.1813
vn -0.8522 0.4909 0.1813
vn 0.7049 -0.4908 -0.5120
vn -0.8522 -0.4908 0.1813
vn -0.7049 -0.4909 0.5120
vn -0.5829 0.4909 0.6475
vn 0.2693 0.4909 -0.8286
vn 0.2693 -0.4909 -0.8286
vn 0.8226 -0.0269 0.5680
vn 0.9990 -0.0379 -0.0245
vn 0.9991 -0.0379 -0.0169
vn -0.5780 -0.5597 0.5938
vn -0.4049 -0.6864 0.6041
vn -0.6112 -0.5588 -0.5605
vn -0.4320 -0.6941 -0.5758
vn 0.7435 -0.2970 0.5991
vn 0.7297 -0.3864 0.5641
vn 0.6819 -0.3179 0.6588
vn 0.6992 -0.2350 0.6752
vn 0.7112 -0.2174 0.6685
vn 0.7108 -0.1909 0.6770
vn 0.6731 -0.1892 -0.7149
vn 0.6742 -0.2212 -0.7047
vn 0.6615 -0.2393 -0.7107
vn 0.6453 -0.3209 -0.6933
vn 0.6962 -0.3858 -0.6053
vn 0.7063 -0.3023 -0.6401
vn -0.6512 0.2392 0.7202
vn -0.6513 0.2374 0.7207
vn -0.6519 0.2460 0.7173
vn -0.6518 0.2472 0.7169
vn -0.6843 -0.1110 0.7207
vn -0.4097 0.6122 0.6763
vn -0.4017 0.6147 0.6788
vn -0.4101 0.6120 0.6762
vn -0.4626 -0.6111 0.6423
vn -0.4008 0.6150 0.6791
vn 0.6328 -0.3711 0.6796
vn 0.6325 -0.3725 0.6791
vn 0.6331 -0.3664 0.6819
vn 0.6333 -0.3655 0.6822
vn 0.5471 -0.4926 0.6768
vn 0.5668 -0.4825 0.6677
vn 0.4504 -0.5930 0.6675
vn 0.4435 -0.5942 0.6709
vn 0.4512 -0.5926 0.6673
vn 0.4419 -0.5948 0.6715
vn 0.5368 -0.5207 0.6639
vn -0.0711 0.8352 0.5453
vn 0.0777 0.8101 0.5811
vn 0.3403 0.8286 0.4445
vn -0.1007 0.8321 -0.5454
vn 0.0498 0.8057 -0.5903
vn 0.3164 0.8243 -0.4695
vn -0.7299 -0.0371 0.6825
vn -0.7290 -0.0404 0.6833
vn -0.7287 -0.0418 0.6835
vn -0.7303 -0.0354 0.6822
vn -0.7415 -0.2039 0.6392
vn -0.7666 -0.0362 -0.6412
vn -0.7648 -0.0429 -0.6428
vn -0.7670 -0.0335 -0.6407
vn -0.7762 -0.2097 -0.5946
vn -0.7644 -0.0450 -0.6432
vn -0.7230 -0.1157 -0.6811
vn -0.6902 0.2307 -0.6859
vn -0.4968 -0.6113 -0.6161
vn -0.6907 0.2458 -0.6801
vn -0.4485 0.6096 -0.6536
vn -0.4344 0.6141 -0.6589
vn 0.5947 -0.3723 -0.7125
vn 0.5948 -0.3703 -0.7135
vn 0.5946 -0.3730 -0.7123
vn 0.5949 -0.3699 -0.7137
vn 0.5088 -0.4966 -0.7032
vn 0.5263 -0.4879 -0.6964
vn 0.4063 -0.5958 -0.6928
vn 0.4143 -0.5943 -0.6893
vn 0.4153 -0.5938 -0.6891
vn 0.4045 -0.5964 -0.6934
vn 0.5030 -0.5190 -0.6911
vn -0.3588 -0.6073 -0.7088
vn -0.3758 -0.6038 -0.7030
vn -0.4219 -0.5658 -0.7084
vn -0.3012 -0.6183 0.7259
vn -0.3166 -0.6155 0.7217
vn -0.3725 -0.5710 0.7315
vn 0.6367 0.3033 0.7089
vn 0.6421 0.3009 0.7051
vn 0.6426 0.3007 0.7047
vn 0.7978 0.0837 0.5971
vn 0.6362 0.3035 0.7094
vn 0.7945 0.0564 0.6046
vn 0.8112 -0.0009 0.5848
vn 0.8176 -0.0048 0.5757
vn 0.8106 -0.0012 0.5856
vn 0.8101 -0.0003 0.5864
vn -0.6192 -0.2865 0.7311
vn -0.6178 -0.2871 0.7321
vn -0.6174 -0.2873 0.7323
vn -0.4441 -0.4515 0.7739
vn -0.6193 -0.2864 0.7310
vn -0.5243 -0.4165 0.7427
vn -0.6014 -0.3040 0.7389
vn -0.6045 -0.3027 0.7369
vn -0.6052 -0.3021 0.7365
vn -0.6003 -0.3048 0.7394
vn -0.7473 -0.1287 0.6519
vn -0.7693 -0.0955 0.6316
vn 0.3120 0.5470 -0.7768
vn 0.2751 0.5568 -0.7838
vn -0.0924 0.7114 -0.6967
vn -0.0922 0.7114 -0.6967
vn -0.0921 0.7114 -0.6967
vn -0.0926 0.7114 -0.6967
vn -0.3485 0.7505 -0.5615
vn 0.3688 0.5375 0.7583
vn 0.3319 0.5480 0.7678
vn -0.0470 0.7125 0.7000
vn -0.0466 0.7126 0.7001
vn -0.0470 0.7125 0.7001
vn -0.0450 0.7126 0.7001
vn -0.3091 0.7547 0.5787
vn 0.5911 0.3144 -0.7428
vn 0.5891 0.3152 -0.7440
vn 0.5894 0.3151 -0.7438
vn 0.5913 0.3143 -0.7427
vn 0.7627 0.0911 -0.6404
vn 0.7594 0.0655 -0.6473
vn 0.7811 0.0061 -0.6244
vn 0.7808 0.0059 -0.6248
vn 0.7852 0.0038 -0.6192
vn 0.7804 0.0064 -0.6253
vn -0.6639 -0.2769 -0.6947
vn -0.6643 -0.2766 -0.6943
vn -0.6637 -0.2769 -0.6948
vn -0.6633 -0.2771 -0.6952
vn -0.6519 -0.2917 -0.6999
vn -0.6543 -0.2903 -0.6983
vn -0.6511 -0.2922 -0.7005
vn -0.5015 -0.4387 -0.7457
vn -0.6552 -0.2898 -0.6976
vn -0.5741 -0.4049 -0.7116
vn -0.7856 -0.1180 -0.6073
vn -0.7849 -0.1215 -0.6076
vn -0.7847 -0.1223 -0.6077
vn -0.7860 -0.1165 -0.6072
vn -0.8019 -0.0905 -0.5905
vn 0.3588 -0.6073 -0.7089
vn 0.3758 -0.6038 -0.7030
vn 0.4219 -0.5658 -0.7085
vn 0.3012 -0.6183 0.7259
vn 0.3167 -0.6155 0.7217
vn 0.3726 -0.5710 0.7315
vn -0.6421 0.3009 0.7051
vn -0.6367 0.3033 0.7090
vn -0.6426 0.3007 0.7048
vn -0.7977 0.0837 0.5972
vn -0.6361 0.3035 0.7094
vn -0.7945 0.0564 0.6046
vn -0.8176 -0.0048 0.5758
vn -0.8111 -0.0009 0.5849
vn -0.8106 -0.0012 0.5856
vn -0.8100 -0.0003 0.5864
vn -0.8210 -0.0334 0.5700
vn 0.6177 -0.2872 0.7321
vn 0.6191 -0.2866 0.7311
vn 0.6175 -0.2873 0.7323
vn 0.4442 -0.4515 0.7739
vn 0.6194 -0.2864 0.7310
vn 0.5243 -0.4165 0.7427
vn 0.6045 -0.3027 0.7368
vn 0.6014 -0.3040 0.7389
vn 0.6052 -0.3021 0.7365
vn 0.6004 -0.3048 0.7394
vn 0.7473 -0.1287 0.6519
vn 0.7694 -0.0955 0.6316
vn -0.3121 0.5470 -0.7768
vn -0.2751 0.5568 -0.7838
vn 0.0925 0.7114 -0.6967
vn 0.0924 0.7114 -0.6967
vn 0.0921 0.7114 -0.6967
vn 0.0926 0.7114 -0.6967
vn 0.3485 0.7505 -0.5616
vn -0.3688 0.5375 0.7583
vn -0.3318 0.5480 0.7678
vn 0.0460 0.7126 0.7001
vn 0.0471 0.7125 0.7000
vn 0.0468 0.7125 0.7001
vn 0.0451 0.7126 0.7001
vn 0.3091 0.7547 0.5787
vn -0.5891 0.3152 -0.7440
vn -0.5908 0.3146 -0.7430
vn -0.5893 0.3152 -0.7439
vn -0.5913 0.3143 -0.7426
vn -0.7627 0.0911 -0.6403
vn -0.7594 0.0655 -0.6473
vn -0.7808 0.0059 -0.6247
vn -0.7811 0.0061 -0.6244
vn -0.7852 0.0038 -0.6192
vn -0.7804 0.0064 -0.6252
vn -0.7931 -0.0278 -0.6085
vn 0.6643 -0.2766 -0.6944
vn 0.6638 -0.2769 -0.6947
vn 0.6637 -0.2769 -0.6949
vn 0.6632 -0.2771 -0.6952
vn 0.6543 -0.2903 -0.6983
vn 0.6517 -0.2918 -0.7001
vn 0.6511 -0.2922 -0.7005
vn 0.5014 -0.4387 -0.7457
vn 0.6552 -0.2898 -0.6977
vn 0.5741 -0.4049 -0.7117
vn 0.7849 -0.1215 -0.6076
vn 0.7856 -0.1180 -0.6074
vn 0.7847 -0.1223 -0.6077
vn 0.7859 -0.1165 -0.6072
vn 0.8019 -0.0905 -0.5906
vn -0.1766 -0.7834 -0.5959
vn -0.1767 -0.7834 -0.5959
vn -0.1770 -0.7832 -0.5961
vn -0.5850 -0.5943 -0.5520
vn -0.5850 -0.5943 -0.5519
vn -0.5842 -0.5950 -0.5520
vn -0.4520 -0.7815 -0.4301
vn -0.4528 -0.7819 -0.4285
vn -0.4528 -0.7829 -0.4266
vn -0.5853 -0.5939 -0.5520
vn -0.6083 -0.7805 -0.1444
vn -0.6084 -0.7804 -0.1443
vn -0.6086 -0.7803 -0.1442
vn -0.5981 -0.7809 0.1801
vn -0.5993 -0.7801 0.1794
vn -0.5973 -0.7813 0.1813
vn -0.6081 -0.7806 -0.1445
vn -0.4528 -0.7808 -0.4304
vn -0.5969 -0.7817 0.1807
vn -0.2856 -0.9190 -0.2717
vn -0.2855 -0.9191 -0.2717
vn -0.2859 -0.9190 -0.2716
vn -0.3838 -0.9190 -0.0900
vn -0.3849 -0.9183 -0.0927
vn -0.3869 -0.9173 -0.0937
vn -0.3860 -0.9176 -0.0953
vn -0.3809 -0.9170 0.1182
vn -0.3801 -0.9174 0.1178
vn -0.3798 -0.9177 0.1168
vn -0.3805 -0.9172 0.1187
vn -0.4325 -0.7807 0.4511
vn -0.4311 -0.7800 0.4536
vn -0.4312 -0.7815 0.4509
vn -0.2739 -0.9178 0.2876
vn -0.2724 -0.9185 0.2865
vn -0.2763 -0.9172 0.2872
vn -0.1311 -0.9907 -0.0351
vn -0.1288 -0.9907 0.0447
vn -0.2851 -0.9192 -0.2718
vn -0.0998 -0.9907 -0.0927
vn -0.1113 -0.9188 -0.3786
vn -0.1115 -0.9188 -0.3787
vn -0.1110 -0.9189 -0.3785
vn -0.1762 -0.7837 -0.5956
vn -0.1120 -0.9186 -0.3789
vn -0.0381 -0.9907 -0.1306
vn 0.0902 -0.9187 -0.3845
vn 0.0911 -0.9187 -0.3844
vn 0.0912 -0.9184 -0.3849
vn 0.0321 -0.9907 -0.1324
vn 0.1444 -0.7831 -0.6049
vn 0.1444 -0.7837 -0.6042
vn 0.1456 -0.7828 -0.6049
vn 0.0923 -0.9181 -0.3853
vn 0.1469 -0.7820 -0.6057
vn 0.2702 -0.9186 -0.2883
vn 0.2708 -0.9184 -0.2886
vn 0.2700 -0.9185 -0.2887
vn 0.0906 -0.9908 -0.1008
vn 0.4295 -0.7810 -0.4534
vn 0.4278 -0.7814 -0.4543
vn 0.4275 -0.7821 -0.4534
vn 0.2715 -0.9182 -0.2886
vn 0.4315 -0.7799 -0.4534
vn 0.5529 -0.5958 -0.5825
vn 0.5533 -0.5958 -0.5821
vn 0.5533 -0.5955 -0.5824
vn 0.5533 -0.5963 -0.5816
vn 0.5996 -0.7807 -0.1757
vn 0.5996 -0.7810 -0.1744
vn 0.6003 -0.7800 -0.1769
vn 0.3809 -0.9183 -0.1082
vn 0.3815 -0.9179 -0.1086
vn 0.3818 -0.9177 -0.1094
vn 0.5990 -0.7815 -0.1745
vn 0.3813 -0.9182 -0.1078
vn 0.1322 -0.9907 -0.0328
vn 0.3872 -0.9172 0.0933
vn 0.3872 -0.9173 0.0932
vn 0.1337 -0.9905 0.0314
vn 0.6078 -0.7805 0.1462
vn 0.6078 -0.7807 0.1455
vn 0.6075 -0.7809 0.1456
vn 0.3873 -0.9172 0.0933
vn 0.6082 -0.7801 0.1468
vn 0.2894 -0.9171 0.2740
vn 0.2896 -0.9171 0.2740
vn 0.2890 -0.9172 0.2741
vn 0.4542 -0.7798 0.4308
vn 0.4542 -0.7798 0.4310
vn 0.4542 -0.7798 0.4309
vn 0.0999 -0.9906 0.0937
vn 0.2902 -0.9169 0.2739
vn 0.0394 -0.9906 0.1309
vn -0.0335 -0.9906 0.1328
vn -0.0948 -0.9905 0.0996
vn 0.1137 -0.9168 0.3829
vn 0.1134 -0.9168 0.3828
vn 0.1144 -0.9166 0.3832
vn -0.0933 -0.9159 0.3904
vn -0.0920 -0.9171 0.3879
vn -0.0954 -0.9162 0.3892
vn 0.1130 -0.9170 0.3827
vn -0.2715 -0.9184 0.2879
vn -0.0886 -0.9180 0.3865
vn -0.1445 -0.7790 0.6102
vn -0.1426 -0.7794 0.6101
vn -0.1430 -0.7800 0.6093
vn 0.1784 -0.7794 0.6006
vn 0.1785 -0.7793 0.6006
vn 0.1790 -0.7790 0.6009
vn -0.1461 -0.7779 0.6111
vn -0.4309 -0.7785 0.4563
vn -0.5528 -0.5943 0.5841
vn -0.5524 -0.5944 0.5844
vn -0.5525 -0.5948 0.5839
vn 0.1780 -0.7797 0.6004
vn 0.4542 -0.7799 0.4308
vn -0.5524 -0.5936 0.5852
vn 0.5842 -0.5933 0.5538
vn 0.5836 -0.5934 0.5543
vn 0.5841 -0.5930 0.5543
vn 0.5830 -0.5940 0.5544
vn 0.9510 -0.1259 -0.2822
vn 0.9510 -0.1258 -0.2823
vn 0.9510 -0.1257 -0.2823
vn 0.6821 -0.1275 -0.7200
vn 0.9509 0.1254 -0.2828
vn 0.9509 0.1254 -0.2829
vn 0.6817 0.1252 -0.7208
vn 0.6832 0.1248 -0.7195
vn 0.6820 0.1260 -0.7204
vn 0.6830 0.1239 -0.7199
vn 0.6391 0.3687 -0.6750
vn 0.6397 0.3687 -0.6744
vn 0.6396 0.3694 -0.6741
vn 0.6393 0.3678 -0.6753
vn 0.8903 0.3699 -0.2656
vn 0.8903 0.3699 -0.2655
vn 0.9509 0.1253 -0.2829
vn 0.9649 0.1251 0.2308
vn 0.9649 0.1248 0.2310
vn 0.9649 0.1245 0.2312
vn 0.8903 0.3700 -0.2655
vn 0.7719 0.5923 -0.2311
vn 0.7722 0.5919 -0.2311
vn 0.7720 0.5926 -0.2299
vn 0.9032 0.3707 0.2162
vn 0.9034 0.3709 0.2151
vn 0.9034 0.3702 0.2162
vn 0.9031 0.3716 0.2153
vn 0.6735 0.3714 0.6391
vn 0.6744 0.3717 0.6380
vn 0.6739 0.3706 0.6391
vn 0.7825 0.5942 0.1860
vn 0.7825 0.5943 0.1859
vn 0.7715 0.5933 -0.2298
vn 0.6741 0.3724 0.6378
vn 0.7195 0.1273 0.6827
vn 0.7199 0.1289 0.6820
vn 0.7219 0.1266 0.6803
vn 0.6596 0.4144 0.6270
vn 0.6589 0.4155 0.6271
vn 0.6600 0.4225 0.6212
vn 0.6789 0.1578 -0.7171
vn 0.6776 0.1648 -0.7167
vn 0.6774 0.1607 -0.7178
vn 0.6303 0.3950 -0.6683
vn 0.6304 0.3968 -0.6672
vn 0.6279 0.3998 -0.6678
vn 0.6864 0.0468 -0.7257
vn 0.6784 0.0922 -0.7289
vn 0.6828 0.0904 -0.7249
vn 0.6871 0.0547 -0.7245
vn 0.9535 0.0933 -0.2867
vn 0.9570 0.0559 -0.2848
vn 0.9571 0.0561 -0.2842
vn 0.9464 0.1577 -0.2819
vn 0.9453 0.1638 -0.2820
vn 0.9457 0.1603 -0.2829
vn 0.9462 0.1610 -0.2806
vn 0.9538 0.0906 -0.2866
vn 0.9686 0.0944 0.2299
vn 0.9713 0.0543 0.2314
vn 0.9693 0.0903 0.2287
vn 0.9712 0.0551 0.2318
vn 0.9603 0.1574 0.2302
vn 0.9591 0.1657 0.2295
vn 0.9600 0.1616 0.2289
vn 0.7179 0.0993 0.6891
vn 0.7212 0.0573 0.6903
vn 0.7202 0.0846 0.6886
vn 0.7177 0.0559 0.6941
vn 0.7113 0.1650 0.6833
vn 0.7148 0.1621 0.6803
vn 0.7142 0.1566 0.6822
vn 0.7101 0.1599 0.6858
vn 0.6639 0.4056 0.6283
vn 0.6696 0.3942 0.6295
vn 0.6627 0.4020 0.6319
vn 0.9597 0.1611 0.2304
vn 0.6697 0.3971 0.6276
vn 0.6619 0.4210 0.6202
vn 0.8923 0.3976 0.2140
vn 0.8917 0.3991 0.2134
vn 0.8921 0.3983 0.2134
vn 0.8921 0.3980 0.2140
vn 0.8791 0.3975 -0.2630
vn 0.8782 0.4003 -0.2619
vn 0.8785 0.3985 -0.2635
vn 0.8832 0.4185 0.2115
vn 0.8833 0.4182 0.2117
vn 0.8836 0.4174 0.2122
vn 0.8834 0.4181 0.2119
vn 0.8786 0.3996 -0.2616
vn 0.8710 0.4172 -0.2596
vn 0.8715 0.4154 -0.2607
vn 0.8713 0.4166 -0.2595
vn 0.6282 0.3983 -0.6684
vn 0.8713 0.4157 -0.2606
vn 0.6258 0.4179 -0.6586
vn 0.6252 0.4115 -0.6632
vn 0.6263 0.4170 -0.6587
vn 0.6391 -0.3709 -0.6738
vn 0.6399 -0.3710 -0.6730
vn 0.6391 -0.3700 -0.6743
vn 0.6393 -0.3716 -0.6732
vn 0.7706 -0.5946 -0.2293
vn 0.7707 -0.5954 -0.2271
vn 0.7709 -0.5943 -0.2291
vn 0.7701 -0.5960 -0.2275
vn 0.7813 -0.5952 0.1880
vn 0.7814 -0.5949 0.1882
vn 0.7811 -0.5955 0.1877
vn 0.7816 -0.5947 0.1885
vn 0.6746 -0.3679 0.6400
vn 0.6745 -0.3681 0.6400
vn 0.6744 -0.3682 0.6400
vn 0.9039 -0.3686 0.2172
vn 0.9038 -0.3687 0.2171
vn 0.9039 -0.3685 0.2172
vn 0.8905 -0.3699 -0.2649
vn 0.8909 -0.3704 -0.2630
vn 0.8910 -0.3689 -0.2648
vn 0.8905 -0.3710 -0.2634
vn 0.6747 -0.3678 0.6400
vn 0.9510 -0.1260 -0.2822
vn 0.9649 -0.1240 0.2314
vn 0.9649 -0.1242 0.2312
vn 0.9649 -0.1238 0.2315
vn 0.7218 -0.1253 0.6807
vn 0.7194 -0.1246 0.6833
vn 0.7202 -0.1230 0.6828
vn 0.9649 -0.1244 0.2311
vn 0.7212 -0.1268 0.6810
vn 0.7216 0.1252 0.6809
vn 0.9649 0.1254 0.2307
vn 0.2815 0.1288 0.9509
vn 0.2817 0.1292 0.9508
vn 0.2824 0.1286 0.9506
vn 0.2637 0.3732 0.8895
vn 0.2640 0.3727 0.8896
vn 0.2634 0.3731 0.8896
vn 0.2822 0.1282 0.9507
vn 0.2636 0.3734 0.8895
vn 0.2291 0.5927 0.7721
vn 0.2287 0.5933 0.7719
vn 0.2289 0.5930 0.7720
vn -0.2310 0.1284 0.9644
vn -0.2311 0.1281 0.9644
vn -0.2313 0.1279 0.9644
vn 0.2294 0.5924 0.7723
vn -0.2309 0.1286 0.9644
vn -0.2310 -0.1264 0.9647
vn -0.2309 -0.1265 0.9647
vn -0.2174 0.3708 0.9029
vn -0.2142 0.3716 0.9034
vn -0.2171 0.3697 0.9034
vn -0.2147 0.3732 0.9026
vn -0.1865 0.5925 0.7837
vn -0.1866 0.5924 0.7837
vn -0.1868 0.5923 0.7838
vn -0.1863 0.5927 0.7836
vn -0.6398 0.3709 0.6732
vn -0.6393 0.3716 0.6732
vn -0.6388 0.3706 0.6742
vn -0.2104 0.4164 0.8845
vn -0.2090 0.4186 0.8838
vn -0.2088 0.4183 0.8840
vn -0.6269 0.4164 0.6585
vn -0.6268 0.4167 0.6584
vn -0.6266 0.4164 0.6588
vn 0.2608 0.4158 0.8712
vn 0.2602 0.4169 0.8709
vn 0.2609 0.4159 0.8712
vn -0.2191 0.0569 0.9740
vn -0.2181 0.0829 0.9724
vn -0.2200 0.0998 0.9704
vn 0.2702 0.0566 0.9611
vn -0.2314 0.0535 0.9714
vn -0.6813 0.1533 0.7157
vn -0.6786 0.1674 0.7152
vn -0.6775 0.1597 0.7180
vn 0.2793 0.0540 0.9587
vn -0.2280 0.1604 0.9604
vn -0.2291 0.1615 0.9599
vn -0.2284 0.1630 0.9598
vn 0.2825 0.1686 0.9443
vn 0.2797 0.1553 0.9475
vn 0.2758 0.1631 0.9473
vn -0.6819 0.1616 0.7134
vn -0.2275 0.1619 0.9602
vn -0.6334 0.3981 0.6636
vn -0.6339 0.3994 0.6623
vn -0.6313 0.4022 0.6630
vn -0.2125 0.4003 0.8914
vn -0.2122 0.4005 0.8914
vn -0.2129 0.4001 0.8914
vn -0.2118 0.4007 0.8914
vn -0.2111 0.4166 0.8842
vn 0.2602 0.4164 0.8711
vn 0.2649 0.3970 0.8787
vn 0.2622 0.4038 0.8765
vn 0.2660 0.3994 0.8773
vn 0.2851 0.1603 0.9450
vn 0.2620 0.4018 0.8774
vn -0.1870 -0.5926 0.7834
vn -0.1857 -0.5937 0.7830
vn -0.1872 -0.5932 0.7830
vn 0.2290 -0.5929 0.7720
vn -0.1857 -0.5940 0.7827
vn -0.6390 -0.3681 0.6754
vn -0.6390 -0.3679 0.6755
vn -0.6390 -0.3677 0.6757
vn -0.2148 -0.3685 0.9045
vn -0.2167 -0.3668 0.9047
vn -0.2145 -0.3672 0.9051
vn 0.2645 -0.3677 0.8915
vn 0.2644 -0.3679 0.8915
vn 0.2643 -0.3680 0.8914
vn -0.2165 -0.3659 0.9051
vn 0.2646 -0.3676 0.8915
vn -0.2310 -0.1263 0.9647
vn 0.2821 -0.1267 0.9510
vn 0.2822 -0.1266 0.9510
vn 0.2823 -0.1265 0.9510
vn 0.2821 -0.1268 0.9510
vn -0.5848 0.5920 -0.5546
vn -0.5843 0.5916 -0.5555
vn -0.5845 0.5922 -0.5546
vn 0.1628 0.7142 -0.6808
vn 0.1614 0.7115 -0.6839
vn 0.1646 0.7158 -0.6786
vn -0.1989 0.7124 -0.6730
vn -0.1998 0.7145 -0.6705
vn -0.2012 0.7158 -0.6686
vn 0.5518 0.5926 -0.5868
vn 0.5546 0.5915 -0.5852
vn 0.5516 0.5938 -0.5857
vn -0.5845 0.5909 -0.5561
vn 0.5547 0.5909 -0.5858
vn 0.5852 0.5938 0.5523
vn 0.5834 0.5945 0.5534
vn 0.5833 0.5949 0.5531
vn 0.6704 0.7146 -0.1998
vn 0.6679 0.7166 -0.2011
vn 0.6695 0.7153 -0.2005
vn 0.6795 0.7156 0.1620
vn 0.6783 0.7166 0.1625
vn 0.6802 0.7150 0.1613
vn 0.5854 0.5929 0.5530
vn -0.5555 0.5916 0.5843
vn -0.5555 0.5914 0.5845
vn -0.5555 0.5919 0.5840
vn -0.5555 0.5911 0.5848
vn -0.6792 0.7155 -0.1638
vn -0.6794 0.7153 -0.1637
vn -0.6679 0.7174 0.1982
vn -0.6688 0.7166 0.1979
vn -0.6693 0.7163 0.1975
vn -0.4820 0.7163 0.5045
vn -0.4806 0.7174 0.5043
vn -0.4796 0.7180 0.5044
vn -0.6681 0.7171 0.1984
vn -0.4820 0.7166 0.5042
vn -0.1603 0.7169 0.6785
vn -0.1605 0.7172 0.6781
vn -0.1598 0.7166 0.6789
vn -0.1610 0.7177 0.6775
vn 0.1984 0.7174 0.6678
vn 0.1991 0.7184 0.6665
vn 0.1988 0.7178 0.6672
vn 0.1994 0.7183 0.6665
vn 0.5065 0.7162 0.4802
vn 0.5063 0.7171 0.4790
vn 0.5064 0.7178 0.4778
vn 0.5061 0.7161 0.4806
vn 0.6784 0.7164 0.1629
vn -0.6789 0.7156 -0.1640
vn -0.5074 0.7140 -0.4824
vn -0.5081 0.7135 -0.4825
vn -0.5066 0.7145 -0.4826
vn -0.5084 0.7134 -0.4823
vn -0.1980 0.7127 -0.6729
vn 0.6682 0.7162 -0.2015
vn 0.4801 0.7171 -0.5052
vn 0.4805 0.7148 -0.5081
vn 0.4810 0.7166 -0.5051
vn 0.4800 0.7134 -0.5104
vn 0.1605 0.7121 -0.6835
vn -0.6821 -0.1259 0.7204
vn -0.6820 -0.1259 0.7204
vn -0.6820 -0.1258 0.7204
vn -0.6821 0.1273 0.7201
vn -0.6821 0.1274 0.7201
vn -0.9510 0.1256 0.2824
vn -0.9510 0.1257 0.2824
vn -0.6391 0.3700 0.6743
vn -0.8904 0.3706 0.2644
vn -0.8903 0.3709 0.2642
vn -0.8903 0.3708 0.2643
vn -0.9649 0.1243 -0.2312
vn -0.9649 0.1242 -0.2312
vn -0.9037 0.3690 -0.2173
vn -0.9037 0.3689 -0.2174
vn -0.9037 0.3687 -0.2174
vn -0.9036 0.3691 -0.2172
vn -0.8904 0.3704 0.2646
vn -0.7837 0.5918 -0.1886
vn -0.7838 0.5918 -0.1884
vn -0.7839 0.5913 -0.1891
vn -0.7733 0.5908 0.2301
vn -0.7736 0.5905 0.2299
vn -0.7734 0.5915 0.2281
vn -0.7835 0.5922 -0.1883
vn -0.7728 0.5921 0.2284
vn -0.6271 0.4171 0.6579
vn -0.8717 0.4162 0.2587
vn -0.8717 0.4161 0.2589
vn -0.6312 0.4012 0.6638
vn -0.8717 0.4163 0.2585
vn -0.8789 0.3997 0.2603
vn -0.8793 0.3985 0.2609
vn -0.8790 0.3992 0.2607
vn -0.8845 0.4156 -0.2123
vn -0.8844 0.4156 -0.2122
vn -0.8845 0.4153 -0.2127
vn -0.8844 0.4159 -0.2119
vn -0.6594 0.4144 -0.6272
vn -0.6596 0.4172 -0.6252
vn -0.6599 0.4169 -0.6252
vn -0.8922 0.3969 -0.2156
vn -0.8911 0.4000 -0.2145
vn -0.8915 0.3992 -0.2143
vn -0.6640 0.4002 -0.6316
vn -0.6658 0.3965 -0.6321
vn -0.6638 0.3993 -0.6323
vn -0.8915 0.3981 -0.2161
vn -0.8790 0.3993 0.2605
vn -0.9594 0.1611 -0.2317
vn -0.7281 0.0552 -0.6832
vn -0.7231 0.0532 -0.6887
vn -0.7213 0.0900 -0.6868
vn -0.7210 0.0940 -0.6865
vn -0.9680 0.0546 -0.2450
vn -0.9573 0.1579 -0.2420
vn -0.9462 0.1640 0.2790
vn -0.9475 0.1583 0.2779
vn -0.9474 0.1616 0.2763
vn -0.9465 0.1605 0.2801
vn -0.9705 0.0576 -0.2341
vn -0.9680 0.0918 -0.2335
vn -0.9677 0.0952 -0.2334
vn -0.9571 0.0924 0.2747
vn -0.9584 0.0568 0.2796
vn -0.9585 0.0538 0.2801
vn -0.9564 0.0894 0.2779
vn 0.9500 0.1271 -0.2853
vn -0.6884 0.0903 0.7197
vn -0.6867 0.0991 0.7201
vn -0.6859 0.1240 0.7170
vn 0.7170 0.1243 0.6859
vn 0.2341 0.0950 -0.9676
vn 0.2342 0.0910 -0.9679
vn 0.2330 0.1288 -0.9639
vn -0.6900 0.0574 0.7215
vn -0.6856 0.0557 0.7258
vn -0.7211 -0.1258 -0.6813
vn -0.7199 -0.1262 -0.6825
vn -0.7209 -0.1252 -0.6817
vn -0.9028 -0.3717 -0.2164
vn -0.9026 -0.3723 -0.2160
vn -0.9026 -0.3717 -0.2170
vn -0.9650 -0.1249 -0.2308
vn -0.9649 -0.1255 -0.2307
vn -0.9649 -0.1252 -0.2308
vn -0.9649 -0.1244 -0.2312
vn -0.7213 0.1231 -0.6816
vn -0.7191 0.1253 -0.6835
vn -0.7217 0.1246 -0.6809
vn -0.9649 0.1244 -0.2312
vn -0.9029 -0.3714 -0.2166
vn -0.7820 -0.5942 -0.1880
vn -0.7824 -0.5937 -0.1878
vn -0.7820 -0.5951 -0.1853
vn -0.7812 -0.5961 -0.1857
vn -0.7705 -0.5944 0.2303
vn -0.7703 -0.5947 0.2301
vn -0.7702 -0.5950 0.2298
vn -0.8903 -0.3699 0.2656
vn -0.8903 -0.3700 0.2655
vn -0.7706 -0.5942 0.2306
vn -0.9509 -0.1254 0.2828
vn -0.9509 -0.1254 0.2829
vn -0.6390 -0.3683 0.6753
vn -0.6821 -0.1260 0.7204
vn 0.2311 -0.1281 -0.9645
vn 0.2308 -0.1287 -0.9645
vn 0.2309 -0.1284 -0.9645
vn 0.2317 0.1240 -0.9648
vn 0.2283 0.1247 -0.9656
vn 0.2311 0.1226 -0.9652
vn 0.2290 0.1264 -0.9652
vn -0.2826 0.1267 -0.9508
vn -0.2828 0.1264 -0.9508
vn -0.2827 0.1265 -0.9508
vn 0.2145 0.3686 -0.9045
vn 0.2147 0.3688 -0.9044
vn 0.2141 0.3692 -0.9043
vn -0.2644 0.3680 -0.8915
vn -0.2646 0.3677 -0.8915
vn -0.2645 0.3678 -0.8915
vn -0.6747 0.3679 -0.6399
vn -0.6744 0.3682 -0.6399
vn -0.6746 0.3681 -0.6399
vn -0.2643 0.3681 -0.8914
vn 0.2147 0.3683 -0.9046
vn -0.2279 0.5910 -0.7738
vn -0.2284 0.5920 -0.7729
vn -0.2340 0.5889 -0.7735
vn 0.1842 0.5923 -0.7844
vn 0.1917 0.5897 -0.7845
vn 0.1849 0.5934 -0.7834
vn 0.1905 0.5872 -0.7867
vn -0.2332 0.5868 -0.7754
vn -0.6588 0.4149 -0.6276
vn -0.2568 0.4169 -0.8719
vn -0.2582 0.4147 -0.8725
vn -0.2568 0.4165 -0.8721
vn -0.6664 0.3976 -0.6308
vn -0.2585 0.4152 -0.8722
vn -0.2610 0.3975 -0.8797
vn -0.2609 0.3976 -0.8797
vn -0.2607 0.3977 -0.8797
vn 0.2094 0.4183 -0.8839
vn 0.2123 0.4139 -0.8853
vn 0.2132 0.4146 -0.8847
vn -0.7190 0.1547 -0.6776
vn -0.7173 0.1598 -0.6782
vn -0.7174 0.1664 -0.6765
vn -0.7197 0.1609 -0.6754
vn -0.2612 0.3974 -0.8797
vn -0.2823 0.1604 -0.9458
vn -0.2811 0.1608 -0.9461
vn -0.2807 0.1609 -0.9462
vn 0.2142 0.3931 -0.8942
vn 0.2114 0.4012 -0.8913
vn 0.2091 0.3987 -0.8929
vn 0.2152 0.3951 -0.8931
vn -0.2827 0.1603 -0.9457
vn -0.2858 0.0560 -0.9567
vn 0.2260 0.1608 -0.9608
vn 0.2273 0.1604 -0.9605
vn 0.2270 0.1605 -0.9606
vn 0.2257 0.1609 -0.9608
vn 0.2302 0.0558 -0.9715
vn -0.2974 0.0526 -0.9533
vn -0.2964 0.0941 -0.9504
vn -0.2965 0.0900 -0.9508
vn 0.2349 0.0544 -0.9705
vn -0.7184 0.1282 -0.6837
vn 0.2683 0.1238 0.9554
vn 0.6801 0.1285 -0.7218
vn -0.9643 0.1268 -0.2326
vn -0.2952 0.1288 -0.9467
vn -0.2175 0.1237 0.9682
vn 0.9655 0.1257 0.2279
vn -0.9527 0.1257 0.2768
vn 0.6795 0.1616 -0.7156
vn 0.6237 0.4128 -0.6638
vn 0.2092 0.4176 -0.8842
vn 0.1886 -0.5943 -0.7818
vn 0.1855 -0.5968 -0.7807
vn 0.1890 -0.5955 -0.7808
vn -0.2288 -0.5949 -0.7706
vn -0.2286 -0.5948 -0.7706
vn -0.2288 -0.5946 -0.7708
vn -0.2283 -0.5952 -0.7705
vn -0.2639 -0.3729 -0.8895
vn -0.2637 -0.3732 -0.8895
vn -0.2636 -0.3734 -0.8894
vn 0.1859 -0.5973 -0.7802
vn 0.2148 -0.3731 -0.9026
vn 0.2175 -0.3708 -0.9029
vn 0.2143 -0.3716 -0.9033
vn -0.2641 -0.3727 -0.8896
vn 0.2171 -0.3697 -0.9034
vn -0.6749 -0.3727 -0.6369
vn -0.6739 -0.3730 -0.6378
vn -0.6746 -0.3723 -0.6374
vn -0.2821 -0.1277 -0.9508
vn -0.2829 -0.1277 -0.9506
vn -0.2822 -0.1283 -0.9507
vn 0.2313 -0.1278 -0.9645
vn -0.6738 -0.3735 -0.6376
vn -0.2828 -0.1271 -0.9507
vn -0.7202 -0.1268 -0.6821
vn -0.7195 0.1271 -0.6827
vn -0.2825 0.1269 -0.9508
vn -0.6748 0.3677 -0.6399
vn 0.0741 0.7052 0.7052
vn 0.7940 -0.0240 -0.6075
vt 9.996070 -59.046501
vt 9.978900 -59.029400
vt 9.996070 -59.026901
vt 9.991170 -59.022301
vt 9.996070 -59.019600
vt 10.013200 -59.029400
vt 10.001000 -59.022301
vt 9.929840 -58.996101
vt 9.922010 -58.996101
vt 9.927700 -58.991199
vt 9.947240 -58.996101
vt 9.944940 -58.978901
vt 9.967690 -58.972000
vt 9.980530 -58.996101
vt 9.988730 -58.968700
vt 9.988730 -59.023399
vt 9.967690 -59.020199
vt 9.944940 -59.013199
vt 9.927700 -59.000999
vt 10.011300 -59.033401
vt 10.002800 -59.059700
vt 9.983400 -59.026001
vt 9.971030 -59.053902
vt 10.027000 -59.055099
vt 10.055100 -59.029400
vt 10.056800 -59.046501
vt 9.947360 -59.030998
vt 10.072300 -59.022301
vt 10.074400 -59.026901
vt 9.961690 -59.008598
vt 10.019500 -59.007500
vt 9.996620 -58.998798
vt 9.978730 -58.988201
vt 9.953660 -58.989201
vt 9.967480 -58.977402
vt 9.949880 -58.965500
vt 10.003900 -59.001099
vt 10.030800 -59.008598
vt 10.003900 -59.030998
vt 10.022000 -58.989201
vt 10.003900 -58.965500
vt 9.977050 -59.008598
vt 9.985810 -58.989201
vt 10.011300 -58.968700
vt 10.027000 -58.996101
vt 10.002800 -58.996101
vt 10.032300 -58.972000
vt 10.055100 -58.978901
vt 10.011300 -59.023399
vt 10.032300 -59.020199
vt 10.055100 -59.013199
vt 9.944940 -59.029400
vt 9.972980 -59.055099
vt 9.943210 -59.046501
vt 10.016600 -59.026001
vt 9.997170 -59.059700
vt 9.988730 -59.033401
vt 9.925560 -59.026901
vt 9.927700 -59.022301
vt 10.029000 -59.053902
vt 10.052600 -59.030998
vt 10.038300 -59.008598
vt 10.003400 -58.998798
vt 9.980530 -59.007500
vt 10.021300 -58.988201
vt 10.046300 -58.989201
vt 10.032500 -58.977402
vt 10.050100 -58.965500
vt 0.216797 0.368267
vt 0.887742 0.810680
vt 0.226630 0.376979
vt 0.981449 0.909589
vt 0.137086 0.073995
vt 0.404204 0.688084
vt 0.673654 0.579902
vt 0.401328 0.691272
vt 0.182639 0.263907
vt 0.171906 0.474387
vt 0.205020 0.474029
vt 0.223765 0.499278
vt 0.360174 0.540670
vt 0.947531 0.909589
vt 0.288127 0.499278
vt 0.144538 0.105669
vt 0.114322 0.069426
vt 0.203757 0.472831
vt 0.139061 0.443019
vt 0.197164 0.469015
vt 0.428205 0.028024
vt 0.395654 0.024899
vt 0.420127 0.034097
vt 0.972266 0.909589
vt 0.943338 0.905742
vt 0.064361 0.000000
vt 0.972266 0.599140
vt 0.137965 0.441979
vt 0.117105 0.117685
vt 0.120099 0.449521
vt 0.399927 0.690725
vt 0.364725 0.486412
vt 0.171831 0.474351
vt 0.558810 0.666648
vt 0.400652 0.759266
vt 0.400652 0.748560
vt 0.947531 0.499479
vt 0.947531 0.599417
vt 0.919065 0.883856
vt 0.425387 0.691061
vt 0.195499 0.467436
vt 0.365210 0.378106
vt 0.437239 0.145777
vt 0.674091 0.579769
vt 0.216346 0.367223
vt 0.120024 0.449486
vt 0.447531 0.000000
vt 0.700324 0.637270
vt 0.973765 0.468478
vt 0.882619 0.524741
vt 0.361444 0.062860
vt 0.360690 0.062267
vt 0.418981 0.033195
vt 0.427336 0.027340
vt 0.444316 0.151348
vt 0.359113 0.437522
vt 0.466667 0.750000
vt 0.533333 0.750000
vt 0.533333 1.000000
vt 0.466667 1.000000
vt 0.466667 0.000000
vt 0.533333 0.000000
vt 0.533333 0.250000
vt 0.466667 0.250000
vt 0.533333 0.500000
vt 0.466667 0.500000
vt 0.600000 0.500000
vt 0.600000 0.750000
vt 0.600000 1.000000
vt 0.600000 0.000000
vt 0.600000 0.250000
vt 0.666667 0.500000
vt 0.666667 0.750000
vt 0.633333 0.750000
vt 0.633333 0.250000
vt 0.666667 0.250000
vt 0.633333 1.000000
vt 0.633333 0.000000
vt 0.733333 0.500000
vt 0.733333 0.750000
vt 0.666667 1.000000
vt 0.666667 0.000000
vt 0.733333 1.000000
vt 0.733333 0.000000
vt 0.733333 0.250000
vt 0.800000 0.500000
vt 0.800000 0.750000
vt 0.800000 1.000000
vt 0.800000 0.000000
vt 0.800000 0.250000
vt 0.866667 0.500000
vt 0.866667 0.750000
vt 0.866667 1.000000
vt 0.866667 0.000000
vt 0.866667 0.250000
vt 0.933333 0.500000
vt 0.933333 0.750000
vt 0.933333 1.000000
vt 0.933333 0.000000
vt 0.933333 0.250000
vt 1.000000 0.500000
vt 1.000000 0.750000
vt 1.000000 1.000000
vt 1.000000 0.000000
vt 1.000000 0.250000
vt 0.000000 0.500000
vt 0.066667 0.500000
vt 0.066667 0.750000
vt 0.000000 0.750000
vt 0.066667 1.000000
vt 0.000000 1.000000
vt 0.000000 0.000000
vt 0.066667 0.000000
vt 0.066667 0.250000
vt 0.000000 0.250000
vt 0.133333 0.500000
vt 0.133333 0.750000
vt 0.133333 1.000000
vt 0.133333 0.000000
vt 0.133333 0.250000
vt 0.200000 0.500000
vt 0.200000 0.750000
vt 0.200000 1.000000
vt 0.200000 0.000000
vt 0.200000 0.250000
vt 0.266667 0.500000
vt 0.266667 0.750000
vt 0.266667 1.000000
vt 0.266667 0.000000
vt 0.266667 0.250000
vt 0.333333 0.500000
vt 0.333333 0.750000
vt 0.333333 1.000000
vt 0.333333 0.000000
vt 0.333333 0.250000
vt 0.400000 0.500000
vt 0.400000 0.750000
vt 0.400000 1.000000
vt 0.400000 0.000000
vt 0.400000 0.250000
vt 0.500000 0.500000
vt 0.566667 0.500000
vt 0.566667 0.750000
vt 0.500000 0.750000
vt 0.566667 1.000000
vt 0.500000 1.000000
vt 0.500000 0.000000
vt 0.566667 0.000000
vt 0.566667 0.250000
vt 0.500000 0.250000
vt 0.633333 0.500000
vt 0.700000 0.500000
vt 0.700000 0.750000
vt 0.700000 1.000000
vt 0.700000 0.000000
vt 0.700000 0.250000
vt 0.766667 0.500000
vt 0.766667 0.750000
vt 0.766667 1.000000
vt 0.766667 0.000000
vt 0.766667 0.250000
vt 0.833333 0.500000
vt 0.833333 0.750000
vt 0.833333 1.000000
vt 0.833333 0.000000
vt 0.833333 0.250000
vt 0.900000 0.500000
vt 0.900000 0.750000
vt 0.900000 1.000000
vt 0.900000 0.000000
vt 0.900000 0.250000
vt 0.966667 0.500000
vt 0.966667 0.750000
vt 0.966667 1.000000
vt 0.966667 0.000000
vt 0.966667 0.250000
vt 0.033333 0.500000
vt 0.033333 0.750000
vt 0.033333 1.000000
vt 0.033333 0.000000
vt 0.033333 0.250000
vt 0.100000 0.500000
vt 0.100000 0.750000
vt 0.100000 1.000000
vt 0.100000 0.000000
vt 0.100000 0.250000
vt 0.166667 0.500000
vt 0.166667 0.750000
vt 0.166667 1.000000
vt 0.166667 0.000000
vt 0.166667 0.250000
vt 0.233333 0.500000
vt 0.233333 0.750000
vt 0.233333 1.000000
vt 0.233333 0.000000
vt 0.233333 0.250000
vt 0.300000 0.500000
vt 0.300000 0.750000
vt 0.300000 1.000000
vt 0.300000 0.000000
vt 0.300000 0.250000
vt 0.366667 0.500000
vt 0.366667 0.750000
vt 0.366667 1.000000
vt 0.366667 0.000000
vt 0.366667 0.250000
vt 0.433333 0.500000
vt 0.433333 0.750000
vt 0.433333 1.000000
vt 0.433333 0.000000
vt 0.433333 0.250000
vt 9.926990 -58.998798
vt 10.000000 -58.984299
vt 9.920970 -58.991600
vt 10.020700 -59.017300
vt 10.000000 -59.006001
vt 10.000000 -59.033100
vt 10.009300 -58.998798
vt 9.979310 -59.017300
vt 9.990660 -58.998798
vt 9.852330 -59.053101
vt 9.895760 -59.039299
vt 9.872330 -59.022099
vt 9.901140 -59.001499
vt 9.875020 -59.070099
vt 9.914470 -59.017300
vt 9.919090 -59.056400
vt 9.927920 -59.033100
vt 9.897480 -59.086899
vt 9.866670 -59.090698
vt 9.886570 -59.103199
vt 9.873120 -59.114101
vt 9.861370 -59.106701
vt 9.858530 -59.124802
vt 9.971810 -59.070099
vt 10.000000 -59.078300
vt 10.000000 -59.053101
vt 9.976540 -59.090698
vt 10.000000 -59.099300
vt 9.986100 -59.106701
vt 10.000000 -59.124802
vt 10.028200 -59.070099
vt 10.023500 -59.090698
vt 10.013900 -59.106701
vt 10.104200 -59.039299
vt 10.125000 -59.070099
vt 10.147700 -59.053101
vt 10.127700 -59.022099
vt 10.098900 -59.001499
vt 10.085500 -59.017300
vt 10.073000 -58.998798
vt 10.079000 -58.991600
vt 10.080900 -59.056400
vt 10.102500 -59.086899
vt 10.133300 -59.090698
vt 10.072100 -59.033100
vt 10.113400 -59.103199
vt 10.126900 -59.114101
vt 10.138600 -59.106701
vt 10.141500 -59.124802
vt 9.938260 -58.984299
vt 10.061700 -58.984299
vt 1.883790 -1.919280
vt 1.908810 -1.896440
vt 1.892440 -1.886980
vt 1.916090 -1.863340
vt 1.879880 -1.879730
vt 1.908830 -1.850780
vt 1.948390 -1.873590
vt 1.948390 -1.854680
vt 1.980690 -1.863340
vt 1.925540 -1.879710
vt 1.971230 -1.879710
vt 1.936550 -1.898780
vt 1.948390 -1.895610
vt 1.960220 -1.898780
vt 1.987960 -1.896440
vt 1.948390 -1.919280
vt 1.927880 -1.907450
vt 1.902690 -1.919280
vt 1.924710 -1.919280
vt 1.927880 -1.931120
vt 1.908810 -1.942130
vt 1.892440 -1.951580
vt 1.936550 -1.939790
vt 1.925540 -1.958860
vt 1.916090 -1.975230
vt 1.908830 -1.987790
vt 1.879880 -1.958840
vt 1.948390 -1.983880
vt 1.948390 -1.964980
vt 1.948390 -1.942960
vt 1.960220 -1.939790
vt 1.971230 -1.958860
vt 1.980690 -1.975230
vt 1.987960 -1.942130
vt 1.968890 -1.931120
vt 1.972060 -1.919280
vt 1.968890 -1.907450
vt 1.994080 -1.919280
vt 2.012990 -1.919280
vt 2.004330 -1.886980
vt 1.987940 -1.850780
vt 2.004330 -1.951580
vt 2.016890 -1.879730
vt 2.016890 -1.958840
vt 1.987940 -1.987790
vt 2.048570 -1.919280
vt 2.072200 -1.875170
vt 2.048570 -1.873620
vt 2.072200 -1.842880
vt 2.024940 -1.875170
vt 2.048570 -1.840190
vt 2.024940 -1.842880
vt 2.002920 -1.850780
vt 2.002920 -1.879730
vt 2.024940 -1.919280
vt 2.024940 -1.963400
vt 2.002920 -1.919280
vt 1.984000 -1.886990
vt 2.002920 -1.958840
vt 2.002920 -1.987790
vt 1.984000 -1.951580
vt 1.984000 -1.919280
vt 2.024940 -1.995690
vt 2.048570 -1.998380
vt 1.932490 -1.942070
vt 1.960680 -1.953970
vt 1.960680 -1.939310
vt 1.873210 -1.914170
vt 1.906000 -1.912020
vt 1.906000 -1.906710
vt 1.932490 -1.896500
vt 1.873210 -1.916330
vt 1.841100 -1.915520
vt 1.841100 -1.917110
vt 1.873210 -1.919280
vt 1.906000 -1.919280
vt 1.841100 -1.919280
vt 1.841100 -1.921460
vt 1.873210 -1.922240
vt 1.841100 -1.923050
vt 1.873210 -1.924400
vt 1.906000 -1.931860
vt 1.906000 -1.926540
vt 1.932490 -1.932440
vt 1.932490 -1.919280
vt 1.960680 -1.919280
vt 1.932490 -1.906130
vt 1.960680 -1.899260
vt 1.960680 -1.884600
vt 2.094220 -1.850780
vt 2.094220 -1.879730
vt 2.094220 -1.919280
vt 2.113130 -1.886980
vt 2.113130 -1.919280
vt 2.113130 -1.951580
vt 2.094220 -1.958840
vt 2.072200 -1.995690
vt 2.094220 -1.987790
vt 2.072200 -1.919280
vt 2.072200 -1.963400
vt 2.048570 -1.964950
vt 1.848200 -1.919280
vt 1.848200 -1.964950
vt 1.871830 -1.963400
vt 1.871830 -1.919280
vt 1.893850 -1.958840
vt 1.893850 -1.919280
vt 1.912770 -1.951580
vt 1.871830 -1.875170
vt 1.912770 -1.919280
vt 1.848200 -1.873620
vt 1.824570 -1.875170
vt 1.893850 -1.879730
vt 1.912770 -1.886990
vt 1.893850 -1.850780
vt 1.871830 -1.842880
vt 1.936100 -1.919280
vt 1.964280 -1.906130
vt 1.936100 -1.899260
vt 1.936100 -1.884600
vt 1.964280 -1.896500
vt 1.964280 -1.932440
vt 1.936100 -1.939310
vt 2.023560 -1.919280
vt 2.055670 -1.919280
vt 2.055670 -1.917110
vt 2.055670 -1.921460
vt 2.023560 -1.916330
vt 1.990770 -1.906710
vt 2.023560 -1.914170
vt 2.023560 -1.922240
vt 1.990770 -1.919280
vt 1.990770 -1.912020
vt 1.964280 -1.919280
vt 1.990770 -1.926540
vt 1.783640 -1.919280
vt 1.802550 -1.919280
vt 1.783640 -1.886980
vt 1.783640 -1.951580
vt 1.802550 -1.879730
vt 1.824570 -1.842880
vt 1.802550 -1.850780
vt 1.802550 -1.958840
vt 1.824570 -1.919280
vt 1.824570 -1.963400
vt 2.004330 -1.886990
vt 1.988440 -1.919280
vt 2.012980 -1.919280
vt 1.980680 -1.975220
vt 1.980680 -1.863340
vt 1.916090 -1.975220
vt 1.948390 -1.959340
vt 1.892450 -1.951580
vt 1.892450 -1.886990
vt 1.948390 -1.879230
vt 1.948390 -1.854690
vt 1.928360 -1.884600
vt 1.913700 -1.899260
vt 1.908330 -1.919280
vt 1.913700 -1.939310
vt 1.928360 -1.953970
vt 1.968410 -1.884600
vt 1.983070 -1.899260
vt 1.968410 -1.953970
vt 1.983070 -1.939310
vt 1.824570 -1.995690
vt 1.848200 -1.998380
vt 1.871830 -1.995690
vt 1.893850 -1.987790
vt 1.964280 -1.942070
vt 1.936100 -1.953970
vt 2.055670 -1.915520
vt 2.055670 -1.923050
vt 2.023560 -1.924400
vt 1.848200 -1.840190
vt 1.802550 -1.987790
s 1
usemtl none.001
f 1/1/1 2/2/1 3/3/1
f 3/3/2 4/4/2 5/5/2
f 3/3/3 6/6/3 1/1/3
f 7/7/4 3/3/4 5/5/4
f 8/8/5 5/9/5 4/10/5
f 4/10/6 9/11/6 8/8/6
f 2/12/7 9/11/7 4/10/7
f 10/13/8 9/11/8 2/12/8
f 11/14/9 9/11/9 10/13/9
f 11/14/10 10/13/10 12/15/10
f 11/14/11 13/16/11 14/17/11
f 14/17/12 9/11/12 11/14/12
f 9/11/13 14/17/13 6/18/13
f 7/19/14 9/11/14 6/18/14
f 9/11/15 7/19/15 8/8/15
f 8/8/16 7/19/16 5/9/16
f 12/20/17 15/21/18 16/22/19
f 15/21/18 17/23/20 16/22/19
f 18/24/21 2/25/21 1/26/21
f 19/27/22 16/22/23 17/23/24
f 2/25/25 4/28/25 3/29/25
f 16/22/23 19/27/22 20/30/26
f 11/31/27 12/20/28 21/32/29
f 16/22/30 21/32/29 12/20/28
f 20/30/31 21/32/31 16/22/31
f 21/32/32 20/30/32 22/33/32
f 23/34/33 22/33/34 20/30/35
f 22/33/34 23/34/33 24/35/36
f 24/35/37 23/34/37 25/36/37
f 26/37/38 20/38/38 19/39/38
f 20/38/39 26/37/39 23/40/39
f 23/40/40 26/37/40 25/41/40
f 19/39/41 27/42/41 26/37/41
f 28/43/42 26/37/42 27/42/42
f 25/41/43 26/37/43 28/43/43
f 12/44/44 18/45/45 15/46/46
f 18/45/45 12/44/44 10/47/47
f 2/48/48 18/45/48 10/47/48
f 13/49/49 18/45/50 14/50/51
f 18/45/52 6/51/52 14/50/52
f 18/45/50 13/49/49 15/46/53
f 6/52/54 18/53/54 1/54/54
f 29/55/55 15/56/55 13/57/55
f 6/52/56 3/58/56 7/59/56
f 15/56/57 29/55/57 17/60/57
f 19/61/58 17/60/58 29/55/58
f 19/61/59 29/55/59 27/62/59
f 21/63/60 13/57/61 11/64/62
f 13/57/61 21/63/60 29/55/63
f 27/62/64 29/55/64 21/63/64
f 27/62/65 21/63/65 22/65/65
f 22/65/66 28/66/67 27/62/68
f 28/66/67 22/65/66 24/67/69
f 28/66/70 24/67/70 25/68/70
f 30/69/71 31/70/71 32/71/72
f 33/72/73 34/73/73 31/70/73
f 35/74/74 36/75/75 37/76/76
f 38/77/77 35/74/78 37/76/79
f 39/78/80 40/79/81 41/80/82
f 42/81/83 43/82/84 44/83/83
f 40/79/85 45/69/85 41/80/85
f 45/69/86 46/84/86 43/85/86
f 47/86/87 30/69/87 32/71/87
f 39/78/88 48/87/89 49/88/90
f 50/89/91 36/90/92 51/91/93
f 42/81/94 33/92/94 52/93/94
f 43/85/95 34/73/95 44/94/95
f 30/95/96 52/93/96 33/92/96
f 53/96/97 38/97/98 37/98/99
f 38/77/100 54/99/101 55/100/102
f 36/101/103 53/96/104 37/98/105
f 39/102/106 56/103/107 57/104/108
f 56/105/109 45/95/109 58/106/109
f 45/95/110 59/107/110 58/106/110
f 39/102/111 54/99/112 60/108/113
f 36/101/114 47/86/115 61/109/116
f 48/87/117 38/97/118 62/110/119
f 30/95/120 50/105/120 63/106/120
f 34/73/121 49/88/122 62/110/123
f 55/100/124 42/81/125 63/111/126
f 30/69/71 33/72/71 31/70/71
f 33/72/73 44/94/73 34/73/73
f 35/74/74 51/112/127 36/75/75
f 38/77/77 55/100/128 35/74/78
f 39/78/80 49/88/129 40/79/81
f 42/81/83 59/107/84 43/82/84
f 40/79/130 64/113/130 45/69/130
f 45/69/86 64/113/86 46/84/86
f 47/86/131 65/80/131 30/69/131
f 39/78/88 60/114/132 48/87/89
f 50/89/91 65/115/133 36/90/92
f 42/81/94 44/83/94 33/92/94
f 43/85/95 46/84/95 34/73/95
f 30/95/96 63/106/96 52/93/96
f 53/96/97 62/110/134 38/97/98
f 38/77/100 60/108/135 54/99/101
f 36/101/103 61/109/136 53/96/104
f 39/102/106 41/116/137 56/103/107
f 56/105/138 41/117/138 45/95/138
f 45/95/110 43/82/110 59/107/110
f 39/102/111 57/104/139 54/99/112
f 36/101/114 65/80/140 47/86/115
f 48/87/117 60/114/141 38/97/118
f 30/95/142 65/118/142 50/105/142
f 62/110/123 53/96/143 61/109/144
f 61/109/145 47/86/145 32/71/145
f 32/71/146 31/70/147 34/73/121
f 34/73/121 46/84/148 64/113/149
f 64/113/150 40/79/150 49/88/150
f 49/88/122 48/87/151 62/110/123
f 62/110/123 61/109/144 32/71/146
f 34/73/121 64/113/149 49/88/122
f 62/110/123 32/71/146 34/73/121
f 51/91/152 35/119/153 55/100/124
f 55/100/124 54/120/154 57/121/155
f 57/121/156 56/122/156 58/123/156
f 58/123/157 59/107/125 42/81/125
f 42/81/125 52/124/158 63/111/126
f 63/111/159 50/89/159 51/91/159
f 55/100/124 57/121/155 58/123/157
f 63/111/126 51/91/152 55/100/124
f 55/100/124 58/123/157 42/81/125
f 126/125/160 67/126/161 68/127/162 127/128/160
f 127/129/163 68/130/164 69/131/164 128/132/165
f 128/132/166 69/131/167 66/133/167 125/134/166
f 66/133/168 70/135/169 71/136/169 67/126/168
f 67/126/170 71/136/171 72/137/172 68/127/170
f 68/130/173 72/138/174 73/139/174 69/131/175
f 69/131/176 73/139/177 70/135/177 66/133/176
f 70/135/178 77/140/179 78/141/179 74/142/178 71/136/178
f 76/143/180 80/144/181 77/140/180 70/135/182 73/139/182
f 71/136/183 74/142/183 75/145/183 72/137/183
f 72/138/184 75/146/184 76/143/184 73/139/184
f 77/140/185 81/147/186 82/148/187 78/141/185
f 74/142/188 78/141/188 79/149/188 75/145/188
f 75/146/189 79/150/189 80/144/189 76/143/189
f 78/141/190 82/148/191 83/151/192 79/149/190
f 79/150/193 83/152/194 84/153/194 80/144/193
f 80/144/195 84/153/196 81/147/196 77/140/195
f 81/147/197 85/154/198 86/155/198 82/148/197
f 82/148/199 86/155/200 87/156/201 83/151/199
f 83/152/202 87/157/203 88/158/203 84/153/204
f 84/153/205 88/158/206 85/154/206 81/147/207
f 85/154/208 89/159/209 90/160/209 86/155/208
f 86/155/210 90/160/211 91/161/211 87/156/210
f 87/157/212 91/162/213 92/163/213 88/158/212
f 88/158/214 92/163/215 89/159/215 85/154/214
f 89/159/216 93/164/217 94/165/217 90/160/216
f 90/160/218 94/165/219 95/166/220 91/161/218
f 91/162/221 95/167/222 96/168/222 92/163/223
f 92/163/224 96/168/225 93/164/225 89/159/224
f 93/164/226 97/169/160 98/170/160 94/165/226
f 94/165/227 98/170/228 99/171/229 95/166/227
f 95/167/230 99/172/166 100/173/166 96/168/231
f 96/168/232 100/173/165 97/169/165 93/164/232
f 97/174/233 101/175/234 102/176/234 98/177/233
f 98/177/235 102/176/168 103/178/236 99/179/235
f 99/180/237 103/181/176 104/182/176 100/183/238
f 100/183/239 104/182/175 101/175/175 97/174/239
f 101/175/240 105/184/241 106/185/241 102/176/240
f 102/176/242 106/185/243 107/186/244 103/178/242
f 103/181/245 107/187/246 108/188/246 104/182/247
f 104/182/248 108/188/249 105/184/249 101/175/248
f 105/184/250 109/189/251 110/190/251 106/185/250
f 106/185/252 110/190/253 111/191/254 107/186/252
f 107/187/255 111/192/195 112/193/256 108/188/257
f 108/188/258 112/193/259 109/189/193 105/184/258
f 109/189/191 113/194/260 114/195/199 110/190/191
f 110/190/187 114/195/261 115/196/262 111/191/187
f 111/192/263 115/197/207 116/198/207 112/193/263
f 112/193/194 116/198/264 113/194/204 109/189/194
f 113/194/265 117/199/266 118/200/266 114/195/265
f 114/195/267 118/200/268 119/201/269 115/196/267
f 115/197/270 119/202/271 120/203/271 116/198/272
f 116/198/273 120/203/274 117/199/274 113/194/273
f 117/199/211 121/204/275 122/205/275 118/200/211
f 118/200/209 122/205/276 123/206/277 119/201/209
f 119/202/278 123/207/279 124/208/279 120/203/215
f 120/203/213 124/208/280 121/204/280 117/199/213
f 121/204/219 125/134/281 126/125/281 122/205/219
f 122/205/282 126/125/283 127/128/284 123/206/282
f 123/207/285 127/129/286 128/132/286 124/208/287
f 124/208/222 128/132/288 125/134/288 121/204/222
f 129/209/289 133/210/290 134/211/290 130/212/289
f 130/212/291 134/211/292 135/213/292 131/214/291
f 131/215/293 135/216/294 136/217/294 132/218/293
f 132/218/295 136/217/296 133/210/296 129/209/295
f 133/210/297 137/219/298 138/142/298 134/211/297
f 134/211/299 138/142/300 139/145/300 135/213/299
f 135/216/301 139/146/302 140/143/302 136/217/301
f 136/217/303 140/143/304 137/219/304 133/210/303
f 137/219/305 141/220/306 142/221/306 138/142/305
f 138/142/307 142/221/308 143/222/308 139/145/307
f 139/146/309 143/223/310 144/224/310 140/143/309
f 140/143/311 144/224/312 141/220/312 137/219/311
f 141/220/313 145/225/314 146/226/314 142/221/313
f 142/221/315 146/226/316 147/227/316 143/222/315
f 143/223/317 147/228/318 148/229/318 144/224/317
f 144/224/319 148/229/320 145/225/320 141/220/319
f 145/225/321 149/230/322 150/231/322 146/226/321
f 146/226/323 150/231/324 151/232/324 147/227/323
f 147/228/325 151/233/326 152/234/326 148/229/325
f 148/229/327 152/234/328 149/230/328 145/225/327
f 149/230/329 153/235/330 154/236/330 150/231/329
f 150/231/331 154/236/332 155/237/332 151/232/331
f 151/233/333 155/238/334 156/239/334 152/234/333
f 152/234/335 156/239/336 153/235/336 149/230/335
f 153/235/337 157/240/338 158/241/338 154/236/337
f 154/236/339 158/241/340 159/242/340 155/237/339
f 155/238/341 159/243/342 160/244/342 156/239/341
f 156/239/343 160/244/344 157/240/344 153/235/343
f 157/240/345 161/245/291 162/246/291 158/241/345
f 158/241/346 162/246/289 163/247/289 159/242/346
f 159/243/347 163/248/295 164/249/295 160/244/347
f 160/244/348 164/249/293 161/245/293 157/240/348
f 161/245/292 165/250/349 166/251/349 162/246/292
f 162/246/290 166/251/350 167/252/350 163/247/290
f 163/248/296 167/253/351 168/254/351 164/249/296
f 164/249/294 168/254/352 165/250/352 161/245/294
f 165/250/353 169/255/307 170/256/307 166/251/353
f 166/251/354 170/256/305 171/257/305 167/252/354
f 167/253/355 171/258/311 172/259/311 168/254/355
f 168/254/356 172/259/309 169/255/309 165/250/357
f 169/255/308 173/260/315 174/261/315 170/256/308
f 170/256/306 174/261/313 175/262/358 171/257/306
f 171/258/312 175/263/319 176/264/319 172/259/312
f 172/259/310 176/264/317 173/260/317 169/255/310
f 173/260/316 177/265/323 178/266/323 174/261/316
f 174/261/314 178/266/359 179/267/359 175/262/314
f 175/263/320 179/268/360 180/269/360 176/264/320
f 176/264/318 180/269/325 177/265/325 173/260/318
f 177/265/361 181/270/331 182/271/331 178/266/361
f 178/266/362 182/271/329 183/272/329 179/267/362
f 179/268/363 183/273/335 184/274/335 180/269/363
f 180/269/364 184/274/333 181/270/333 177/265/364
f 181/270/332 185/275/339 186/276/339 182/271/332
f 182/271/330 186/276/365 187/277/337 183/272/330
f 183/273/336 187/278/343 188/279/343 184/274/336
f 184/274/334 188/279/341 185/275/341 181/270/334
f 185/275/340 129/209/366 130/212/366 186/276/340
f 186/276/338 130/212/367 131/214/367 187/277/338
f 187/278/344 131/215/368 132/218/368 188/279/344
f 188/279/342 132/218/369 129/209/369 185/275/342
f 225/134/370 189/210/371 190/211/371 226/125/372
f 226/125/373 190/211/374 191/213/375 227/128/376
f 227/129/377 191/216/378 192/217/379 228/132/380
f 228/132/381 192/217/382 189/210/383 225/134/384
f 189/210/385 193/140/386 194/141/387 190/211/388
f 190/211/389 194/141/390 195/149/391 191/213/392
f 191/216/393 195/150/394 196/144/394 192/217/395
f 192/217/396 196/144/397 193/140/398 189/210/396
f 193/140/399 197/225/400 198/226/400 194/141/399
f 194/141/401 198/226/402 199/227/403 195/149/404
f 195/150/405 199/228/406 200/229/407 196/144/408
f 196/144/409 200/229/410 197/225/410 193/140/411
f 197/225/412 201/159/413 202/160/414 198/226/412
f 198/226/415 202/160/416 203/161/417 199/227/418
f 199/228/419 203/162/420 204/163/420 200/229/421
f 200/229/422 204/163/423 201/159/424 197/225/425
f 201/159/426 205/240/427 206/241/427 202/160/428
f 202/160/429 206/241/430 207/242/431 203/161/429
f 203/162/432 207/243/433 208/244/434 204/163/435
f 204/163/436 208/244/437 205/240/437 201/159/438
f 205/240/376 209/175/375 210/176/375 206/241/439
f 206/241/370 210/176/440 211/178/371 207/242/370
f 207/243/384 211/181/383 212/182/382 208/244/441
f 208/244/442 212/182/379 209/175/378 205/240/377
f 209/175/389 213/255/391 214/256/390 210/176/389
f 210/176/388 214/256/386 215/257/386 211/178/385
f 211/181/396 215/258/398 216/259/398 212/182/443
f 212/182/393 216/259/444 213/255/394 209/175/393
f 213/255/401 217/194/445 218/195/403 214/256/404
f 214/256/399 218/195/400 219/196/446 215/257/399
f 215/258/409 219/197/447 220/198/448 216/259/411
f 216/259/449 220/198/450 217/194/406 213/255/405
f 217/194/451 221/270/417 222/271/416 218/195/452
f 218/195/412 222/271/413 223/272/414 219/196/412
f 219/197/422 223/273/453 224/274/424 220/198/422
f 220/198/454 224/274/455 221/270/420 217/194/454
f 221/270/429 225/134/431 226/125/431 222/271/456
f 222/271/428 226/125/457 227/128/427 223/272/426
f 223/273/438 227/129/437 228/132/458 224/274/436
f 224/274/432 228/132/434 225/134/434 221/270/432
f 264/280/459 262/281/460 270/282/461
f 229/2/462 230/1/462 231/3/462
f 232/4/463 231/3/463 233/5/463
f 234/6/464 231/3/464 230/1/464
f 231/3/465 235/7/465 233/5/465
f 233/9/466 236/8/466 232/10/466
f 237/11/467 232/10/467 236/8/467
f 237/11/468 229/12/468 232/10/468
f 237/11/469 238/13/469 229/12/469
f 237/11/470 239/14/470 238/13/470
f 238/13/471 239/14/471 240/15/471
f 241/16/472 239/14/472 242/17/472
f 237/11/473 242/17/473 239/14/473
f 242/17/474 237/11/474 234/18/474
f 237/11/475 235/19/475 234/18/475
f 235/19/476 237/11/476 236/8/476
f 235/19/477 236/8/477 233/9/477
f 243/21/478 240/20/479 244/22/480
f 245/23/481 243/21/478 244/22/480
f 229/25/482 246/24/482 230/26/482
f 244/22/483 247/27/484 245/23/485
f 232/28/486 229/25/486 231/29/486
f 247/27/484 244/22/483 248/30/487
f 240/20/488 239/31/489 249/32/490
f 249/32/490 244/22/491 240/20/488
f 249/32/492 248/30/492 244/22/492
f 248/30/493 249/32/493 250/33/493
f 250/33/494 251/34/495 248/30/496
f 251/34/495 250/33/494 252/35/497
f 251/34/498 252/35/498 253/36/498
f 248/38/499 254/37/499 247/39/499
f 254/37/500 248/38/500 251/40/500
f 254/37/501 251/40/501 253/41/501
f 255/42/502 247/39/502 254/37/502
f 254/37/503 256/43/503 255/42/503
f 254/37/504 253/41/504 256/43/504
f 246/45/505 240/44/506 243/46/507
f 240/44/506 246/45/505 238/47/508
f 246/45/509 229/48/509 238/47/509
f 246/45/510 241/49/511 242/50/512
f 234/51/513 246/45/513 242/50/513
f 241/49/511 246/45/510 243/46/514
f 246/53/515 234/52/515 230/54/515
f 243/56/516 257/55/516 241/57/516
f 231/58/517 234/52/517 235/59/517
f 257/55/518 243/56/518 245/60/518
f 245/60/519 247/61/519 257/55/519
f 257/55/520 247/61/520 255/62/520
f 241/57/521 249/63/522 239/64/523
f 249/63/522 241/57/521 257/55/524
f 257/55/525 255/62/525 249/63/525
f 249/63/526 255/62/526 250/65/526
f 256/66/527 250/65/528 255/62/529
f 250/65/528 256/66/527 252/67/530
f 252/67/531 256/66/531 253/68/531
f 258/283/532 259/284/532 260/285/532
f 259/284/533 258/283/533 261/286/533
f 259/284/534 261/286/534 262/281/534
f 260/285/535 259/284/535 263/287/535
f 263/287/536 259/284/536 264/288/536
f 264/288/537 259/284/537 262/281/537
f 265/289/538 266/290/539 267/291/540
f 266/290/541 268/292/541 267/291/541
f 266/290/539 265/289/538 269/293/542
f 268/292/543 266/290/543 263/294/543
f 268/292/544 263/294/545 264/280/546
f 270/282/547 268/292/544 264/280/546
f 269/293/548 271/295/549 266/290/550
f 266/290/551 271/295/551 260/296/551
f 271/295/549 269/293/548 272/297/552
f 263/294/553 266/290/553 260/296/553
f 273/298/554 272/297/555 269/293/556
f 272/297/555 273/298/554 274/299/557
f 273/298/558 275/300/558 274/299/558
f 275/300/558 273/298/558 276/301/558
f 275/300/559 276/301/559 277/302/559
f 278/303/560 279/304/560 265/305/560
f 279/304/561 278/303/561 280/306/561
f 280/306/562 281/307/563 279/304/564
f 281/307/563 280/306/562 282/308/565
f 281/307/566 282/308/566 277/309/566
f 265/305/567 279/304/567 269/310/567
f 269/310/568 279/304/568 273/311/568
f 279/304/569 281/307/570 273/311/571
f 273/311/571 281/307/570 276/312/572
f 276/312/573 281/307/573 277/309/573
f 283/313/574 278/314/575 265/315/576
f 283/313/574 265/315/576 267/316/577
f 267/316/578 268/317/578 283/313/578
f 283/313/579 268/317/579 258/318/579
f 268/317/580 261/319/581 258/318/582
f 261/319/581 268/317/580 270/320/583
f 271/321/584 272/322/585 278/314/586
f 271/321/584 278/314/586 283/313/587
f 272/322/588 280/323/589 278/314/590
f 283/313/591 260/324/591 271/321/591
f 280/323/589 272/322/588 274/325/592
f 260/324/593 283/313/593 258/318/593
f 275/326/594 280/323/595 274/325/596
f 280/323/595 275/326/594 282/327/597
f 282/327/598 275/326/598 277/328/598
f 284/284/599 285/283/599 286/285/599
f 285/283/600 284/284/600 287/286/600
f 287/286/601 284/284/601 288/281/601
f 284/284/602 286/285/602 289/287/602
f 284/284/603 289/287/603 290/288/603
f 284/284/604 290/288/604 288/281/604
f 291/290/605 292/289/606 293/291/607
f 294/292/608 291/290/608 293/291/608
f 292/289/606 291/290/605 295/293/609
f 291/290/610 294/292/610 289/294/610
f 289/294/611 294/292/612 290/280/613
f 294/292/612 296/282/614 290/280/613
f 290/280/615 296/282/615 288/329/615
f 297/295/616 295/293/617 291/290/618
f 297/295/619 291/290/619 286/296/619
f 295/293/617 297/295/616 298/297/620
f 291/290/621 289/294/621 286/296/621
f 298/297/622 299/298/623 295/293/624
f 299/298/623 298/297/622 300/299/625
f 301/300/626 299/298/626 300/299/626
f 299/298/626 301/300/626 302/301/626
f 302/301/627 301/300/627 303/302/627
f 304/304/628 305/303/628 292/305/628
f 305/303/629 304/304/629 306/306/629
f 307/307/630 306/306/631 304/304/632
f 306/306/631 307/307/630 308/308/633
f 308/308/634 307/307/634 303/309/634
f 304/304/635 292/305/635 295/310/635
f 304/304/636 295/310/636 299/311/636
f 307/307/637 304/304/638 299/311/639
f 307/307/637 299/311/639 302/312/640
f 307/307/641 302/312/641 303/309/641
f 305/314/642 309/313/643 292/315/644
f 292/315/644 309/313/643 293/316/645
f 294/317/646 293/316/646 309/313/646
f 294/317/647 309/313/647 285/318/647
f 287/319/648 294/317/649 285/318/650
f 294/317/649 287/319/648 296/320/651
f 296/320/652 287/319/652 288/330/652
f 298/322/653 297/321/654 305/314/655
f 305/314/655 297/321/654 309/313/656
f 306/323/657 298/322/658 305/314/659
f 286/324/660 309/313/660 297/321/660
f 298/322/658 306/323/657 300/325/661
f 309/313/662 286/324/662 285/318/662
f 306/323/663 301/326/664 300/325/665
f 301/326/664 306/323/663 308/327/666
f 301/326/667 308/327/667 303/328/667
f 125/134/228 66/133/1288 67/126/1288 126/125/228
f 262/281/460 261/319/1289 270/282/461
usemtl Material.004
f 311/331/668 313/332/669 312/333/670
f 314/334/671 315/335/672 312/333/673
f 313/332/674 314/334/675 312/333/676
f 315/335/672 314/334/671 316/336/677
f 314/334/678 318/337/679 317/338/680
f 319/339/681 317/338/682 318/337/683
f 318/337/679 314/334/678 320/340/684
f 314/334/675 313/332/674 320/340/685
f 318/337/683 321/341/686 319/339/681
f 313/332/687 322/342/688 320/340/689
f 320/340/690 322/342/691 318/337/692
f 318/337/692 322/342/691 323/343/693
f 318/337/694 324/344/695 321/341/696
f 324/344/695 318/337/694 323/343/697
f 325/345/698 319/339/699 321/341/700
f 324/344/701 325/345/702 321/341/703
f 323/343/704 322/342/704 326/346/704
f 324/344/705 323/343/705 326/346/705
f 322/342/688 313/332/687 327/347/706
f 322/342/707 327/347/707 326/346/707
f 328/348/708 327/347/709 313/332/710
f 313/332/669 311/331/668 328/348/711
f 327/347/709 328/348/708 329/349/712
f 327/347/713 329/349/713 326/346/713
f 329/349/714 328/348/715 330/350/716
f 329/349/717 330/350/717 326/346/717
f 331/351/718 328/348/719 311/331/720
f 328/348/715 331/351/721 330/350/716
f 311/331/720 332/352/722 331/351/718
f 331/351/723 333/353/724 330/350/725
f 330/350/726 333/353/726 326/346/726
f 332/352/727 334/354/728 331/351/729
f 334/354/730 333/353/724 331/351/723
f 332/352/727 335/355/731 334/354/728
f 332/352/732 336/356/733 335/355/734
f 336/356/733 332/352/732 337/357/735
f 338/358/736 334/354/737 335/355/738
f 339/359/739 333/353/740 334/354/741
f 334/354/737 338/358/736 339/359/742
f 333/353/740 339/359/739 340/360/743
f 333/353/744 340/360/744 326/346/744
f 339/359/745 341/361/746 340/360/746
f 340/360/747 341/361/747 326/346/747
f 338/358/748 342/362/749 339/359/750
f 341/361/746 339/359/745 342/362/751
f 342/362/749 338/358/748 343/363/752
f 344/364/753 341/361/754 342/362/755
f 344/364/756 342/362/757 343/363/758
f 341/361/759 345/365/759 326/346/759
f 341/361/754 344/364/753 345/365/760
f 345/365/761 346/366/761 326/346/761
f 346/366/762 347/367/762 326/346/762
f 347/367/763 324/344/763 326/346/763
f 345/365/764 348/368/765 346/366/766
f 348/368/767 347/367/768 346/366/769
f 348/368/765 345/365/764 344/364/770
f 325/345/702 324/344/701 347/367/771
f 347/367/768 348/368/767 325/345/772
f 349/369/773 325/345/774 348/368/775
f 344/364/776 349/369/777 348/368/778
f 325/345/774 349/369/773 350/370/779
f 319/339/699 325/345/698 350/370/780
f 350/370/781 351/371/782 319/339/783
f 349/369/777 344/364/776 352/372/784
f 343/363/758 352/372/785 344/364/756
f 351/371/782 350/370/781 353/373/786
f 343/363/787 354/374/788 352/372/789
f 354/374/788 343/363/787 355/375/790
f 356/376/791 358/377/792 357/378/793
f 359/379/794 357/378/794 358/377/794
f 360/380/795 356/376/796 357/378/795
f 357/378/794 359/379/794 361/381/794
f 361/381/797 360/380/798 357/378/799
f 360/380/798 361/381/797 362/382/800
f 363/383/801 360/380/802 362/382/803
f 360/380/802 363/383/801 364/384/804
f 364/384/805 365/385/806 360/380/805
f 356/376/796 360/380/795 365/385/807
f 366/386/808 356/376/809 365/385/810
f 365/385/806 364/384/805 367/387/811
f 367/387/812 364/384/813 368/388/814
f 365/385/815 369/389/816 366/386/817
f 369/389/816 365/385/815 367/387/818
f 370/390/819 366/386/820 369/389/821
f 367/387/822 371/391/823 369/389/823
f 367/387/812 368/388/814 372/392/824
f 371/391/823 367/387/822 372/392/822
f 366/386/820 370/390/819 373/393/825
f 366/386/826 373/393/827 374/394/828
f 375/395/829 377/396/830 376/397/831
f 378/398/832 380/399/833 379/400/834
f 381/401/835 379/400/836 380/399/837
f 382/402/838 384/403/839 383/404/840
f 384/403/839 382/402/838 378/398/841
f 383/404/842 385/405/843 382/402/844
f 382/402/845 386/406/846 380/399/847
f 386/406/846 382/402/845 385/405/848
f 385/405/843 383/404/842 387/407/849
f 388/408/850 385/405/851 387/407/852
f 388/408/850 389/409/853 385/405/851
f 389/409/854 386/406/855 385/405/856
f 390/410/857 389/409/858 388/408/859
f 390/410/860 391/411/860 389/409/860
f 391/411/861 393/412/862 392/413/863
f 391/411/861 392/413/863 389/409/864
f 375/395/865 392/413/866 393/412/867
f 389/409/854 392/413/868 386/406/855
f 392/413/866 375/395/865 394/414/869
f 375/395/829 376/397/831 394/414/870
f 392/413/871 395/415/872 386/406/873
f 392/413/871 394/414/874 395/415/872
f 395/415/875 380/399/876 386/406/877
f 394/414/878 376/397/879 396/416/880
f 394/414/878 396/416/880 395/415/881
f 380/399/876 395/415/875 397/417/882
f 396/416/883 397/417/884 395/415/885
f 380/399/837 397/417/886 381/401/835
f 397/417/884 396/416/883 398/418/887
f 381/401/888 398/418/889 399/419/890
f 358/377/891 337/420/892 359/379/893
f 337/420/892 358/377/891 336/421/894
f 400/422/895 335/423/896 336/421/897
f 335/423/896 400/422/895 338/424/898
f 400/422/899 343/425/900 338/424/901
f 343/425/900 400/422/899 355/426/902
f 355/426/903 401/427/904 354/428/905
f 402/429/906 355/426/907 400/422/908
f 336/421/909 402/429/910 400/422/911
f 402/429/910 336/421/909 358/377/912
f 355/426/907 402/429/906 403/430/907
f 401/427/904 355/426/903 403/430/913
f 358/377/792 356/376/791 402/429/914
f 356/376/915 403/430/916 402/429/917
f 404/431/918 401/427/919 403/430/920
f 403/430/916 356/376/915 404/431/921
f 401/427/919 404/431/918 374/394/922
f 404/431/923 366/386/826 374/394/828
f 356/376/809 366/386/808 404/431/924
f 405/432/925 374/433/926 373/434/927
f 406/435/928 373/434/929 370/436/930
f 373/434/927 406/435/931 405/432/925
f 370/436/930 407/437/932 406/435/928
f 407/437/933 370/436/934 408/438/935
f 409/439/936 405/432/937 406/435/938
f 408/438/935 410/440/939 407/437/933
f 405/432/937 409/439/936 411/441/940
f 405/432/941 411/441/942 412/442/941
f 406/435/943 413/443/944 409/439/945
f 413/443/944 406/435/943 407/437/946
f 407/437/947 414/444/948 413/443/949
f 414/444/948 407/437/947 410/440/950
f 413/443/951 416/445/952 415/446/953
f 417/447/954 419/448/955 418/449/956
f 420/450/957 419/448/958 421/451/959
f 375/452/960 417/447/961 377/453/962
f 422/454/963 424/455/964 423/456/965
f 422/454/966 390/457/966 424/455/966
f 422/454/967 423/456/967 425/458/967
f 426/459/968 425/458/969 427/460/970
f 390/457/971 422/454/971 391/461/971
f 428/462/972 422/454/973 425/458/974
f 428/462/975 391/461/976 422/454/977
f 425/458/969 426/459/968 429/463/978
f 428/462/972 425/458/974 429/463/979
f 419/448/980 429/463/981 426/459/982
f 430/464/983 429/463/984 419/448/985
f 429/463/984 430/464/983 428/462/986
f 419/448/955 417/447/954 430/464/987
f 417/447/961 375/452/960 430/464/988
f 430/464/989 393/465/990 428/462/991
f 391/461/976 428/462/975 393/465/992
f 393/465/990 430/464/989 375/452/993
f 349/466/994 431/467/995 350/468/996
f 352/469/997 431/467/997 349/466/997
f 431/467/995 353/470/998 350/468/996
f 353/470/999 432/471/1000 351/472/1001
f 431/467/997 352/469/997 354/473/997
f 431/467/1002 433/474/1003 353/470/1004
f 354/473/1005 433/474/1006 431/467/1007
f 433/474/1003 412/442/1008 353/470/1004
f 433/474/1006 354/473/1005 401/475/1009
f 412/442/941 433/474/1010 405/432/941
f 401/475/1011 405/432/1012 433/474/1013
f 405/432/1012 401/475/1011 374/433/1014
f 434/371/1015 436/476/1016 435/373/1017
f 437/477/1018 439/372/1019 438/478/1020
f 436/476/1021 437/477/1022 438/478/1023
f 368/479/1024 363/374/1025 439/372/1026
f 436/476/1016 434/371/1015 440/480/1027
f 363/374/1025 368/479/1024 364/375/1028
f 371/481/1029 370/357/1030 369/356/1031
f 372/358/1032 368/479/1033 396/482/1034
f 396/482/1035 371/481/1036 372/358/1037
f 371/481/1029 408/483/1038 370/357/1030
f 414/484/1039 416/336/1040 413/335/1041
f 416/336/1040 414/484/1039 441/334/1042
f 442/485/1043 440/480/1043 443/486/1044
f 441/334/1045 442/485/1046 443/486/1047
f 414/484/1048 420/487/1049 441/334/1050
f 442/485/1046 441/334/1045 420/487/1051
f 420/487/1049 414/484/1048 418/488/1052
f 414/484/1053 417/489/1054 418/488/1055
f 417/489/1054 414/484/1053 410/331/1056
f 410/331/1057 408/483/1058 417/489/1059
f 417/489/1059 408/483/1058 377/490/1060
f 371/481/1061 377/490/1062 408/483/1063
f 377/490/1062 371/481/1061 376/491/1064
f 371/481/1036 396/482/1035 376/491/1065
f 440/480/1043 442/485/1043 444/492/1066
f 444/492/1067 436/476/1068 440/480/1069
f 436/476/1068 444/492/1067 445/493/1070
f 437/477/1022 436/476/1021 445/493/1071
f 368/479/1033 398/494/1072 396/482/1034
f 368/479/1073 399/495/1074 398/494/1075
f 399/495/1074 368/479/1073 439/372/1076
f 439/372/1019 437/477/1018 399/495/1077
f 446/433/1078 412/496/1079 411/497/1080
f 411/497/1081 415/434/1082 446/433/1082
f 415/434/1082 411/497/1081 409/498/1081
f 447/432/1083 446/433/1084 415/434/1084
f 409/498/1085 413/499/951 415/434/953
f 415/434/1084 448/435/1083 447/432/1083
f 448/435/1086 415/434/1087 416/436/1088
f 449/439/1089 447/432/1089 448/435/1090
f 448/435/1091 434/443/1092 449/439/1093
f 434/443/1092 448/435/1091 450/437/1094
f 416/436/1088 450/437/1095 448/435/1086
f 450/437/1096 440/444/1097 434/443/1098
f 450/437/1099 416/436/1100 441/438/1101
f 440/444/1097 450/437/1096 443/440/1102
f 441/438/1101 443/440/1103 450/437/1099
f 419/500/958 420/453/957 418/501/1104
f 421/452/1105 442/447/1105 420/453/1106
f 426/465/982 421/452/1107 419/500/980
f 442/447/1105 421/452/1105 451/464/1108
f 426/465/1109 451/464/1110 421/452/1111
f 452/448/1112 442/447/1113 451/464/1114
f 442/447/1113 452/448/1112 444/449/1115
f 444/449/1116 453/451/1117 445/450/1118
f 451/464/1119 454/463/1120 452/448/1121
f 454/463/1122 453/451/1123 452/448/1124
f 454/463/1120 451/464/1119 455/462/1125
f 451/464/1110 426/465/1109 455/462/1126
f 455/462/1127 456/458/1127 454/463/1127
f 456/458/1128 458/502/1128 457/460/1128
f 456/458/1129 459/456/1130 458/502/1131
f 460/454/1132 459/456/1132 456/458/1132
f 455/462/1133 460/454/1133 456/458/1133
f 455/462/1134 427/461/1135 460/454/1136
f 427/461/1135 455/462/1134 426/465/1137
f 460/454/1138 461/455/1139 459/456/1140
f 310/457/1141 460/454/1142 427/461/1143
f 460/454/1142 310/457/1141 461/455/1144
f 387/407/849 383/404/842 462/404/1145
f 310/457/1146 423/503/1147 462/503/1148
f 390/410/857 388/408/859 462/408/1149
f 384/408/1150 463/407/1151 462/407/1152
f 427/461/1153 423/503/1147 310/457/1146
f 423/503/1154 427/461/1154 425/504/1154
f 464/505/1155 466/442/1156 465/441/1157
f 467/474/1158 466/442/1159 316/470/1160
f 447/432/1161 465/441/1162 466/442/1163
f 466/442/1163 467/474/1164 447/432/1161
f 465/441/1165 449/439/1166 464/505/1167
f 447/432/1089 449/439/1089 465/441/1168
f 468/467/1169 467/474/1158 316/470/1160
f 468/467/1170 316/470/1171 314/468/1172
f 317/466/1173 468/467/1170 314/468/1172
f 319/469/1174 468/467/1175 317/466/1176
f 351/473/1177 467/474/1178 468/467/1178
f 468/467/1175 319/469/1174 351/473/1179
f 467/474/1178 351/473/1177 432/475/1177
f 432/475/1180 447/432/1181 467/474/1181
f 432/475/1000 353/506/999 412/496/1182
f 412/496/1079 446/433/1078 432/475/1183
f 447/432/1181 432/475/1180 446/433/1180
f 469/376/1184 361/431/1185 359/430/1186
f 469/376/1187 362/386/1188 361/431/1189
f 362/386/1188 469/376/1187 470/385/1190
f 471/380/1191 470/385/1192 469/376/1193
f 470/385/1194 363/389/1195 362/386/1196
f 470/385/1197 471/380/1198 435/384/1199
f 434/383/1200 435/384/1201 471/380/1202
f 435/384/1199 472/387/1203 470/385/1197
f 363/389/1195 470/385/1194 472/387/1204
f 472/387/1205 435/384/1206 436/388/1207
f 472/387/1208 439/391/1209 363/389/1210
f 439/391/1209 472/387/1208 438/392/1211
f 436/388/1207 438/392/1212 472/387/1205
f 444/419/1116 452/401/1213 453/417/1117
f 453/417/1214 437/416/1215 445/418/1216
f 453/417/1123 454/400/1122 473/399/1217
f 437/416/1215 453/417/1214 474/415/1218
f 473/399/1219 474/415/1220 453/417/1221
f 381/414/1222 437/416/1223 474/415/1224
f 457/402/1225 473/399/1226 454/400/1227
f 454/400/1227 456/398/1228 457/402/1225
f 474/415/1220 473/399/1219 475/406/1229
f 457/402/1230 475/406/1231 473/399/1232
f 379/413/1233 474/415/1234 475/406/1235
f 474/415/1234 379/413/1233 381/414/1236
f 475/406/1231 457/402/1230 476/405/1237
f 458/404/1238 476/405/1238 457/402/1238
f 475/406/1239 476/405/1240 378/409/1241
f 475/406/1239 378/409/1241 379/413/1242
f 476/405/1243 384/408/1243 378/409/1243
f 476/405/1244 458/404/1245 463/407/1246
f 476/405/1247 463/407/1151 384/408/1150
f 458/502/1131 459/456/1130 462/456/1248
f 424/455/1249 390/457/1249 462/457/1249
f 383/404/840 384/403/839 462/403/1250
f 459/456/1140 461/455/1139 462/455/1251
f 463/407/1246 458/404/1245 462/404/1252
f 423/456/965 424/455/964 462/455/1253
f 388/408/850 387/407/852 462/407/1254
f 461/455/1144 310/457/1141 462/457/1255
f 380/412/833 378/409/832 382/411/1256
f 398/396/889 381/414/888 397/395/1257
f 437/416/1223 381/414/1222 399/397/1258
f 311/424/1259 477/422/1260 332/425/1261
f 312/423/1262 477/422/1263 311/424/1264
f 477/422/1263 312/423/1262 315/421/1265
f 315/421/1266 478/429/1267 477/422/1268
f 477/422/1260 337/426/1269 332/425/1261
f 477/422/1270 478/429/1271 337/426/1272
f 478/429/1267 315/421/1266 479/377/1273
f 478/429/1271 359/430/1274 337/426/1272
f 316/420/1275 479/377/1276 315/421/1277
f 479/377/1278 469/376/1279 478/429/1280
f 359/430/1186 478/429/1281 469/376/1184
f 479/377/1276 316/420/1275 466/379/1282
f 469/376/1279 479/377/1278 464/378/1283
f 466/379/1156 464/378/1155 479/377/1284
f 449/382/1166 471/380/1285 464/378/1167
f 469/376/1193 464/378/1286 471/380/1191
f 449/382/1287 434/383/1200 471/380/1202
